<svg width="1542" height="621" viewBox="0 0 1542 621" fill="none" xmlns="http://www.w3.org/2000/svg">
<path opacity="0.6" d="M1339.29 78.7282C1338.78 79.9359 1334.85 83.2271 1333.58 85.0097C1332.06 80.5374 1341.11 74.3657 1339.29 78.7282ZM1468.12 396.959C1467.88 394.308 1467.62 391.651 1467.35 388.984C1464.79 395.639 1462.78 404.641 1459.83 410.481C1459.3 411.555 1457.54 407.734 1456.53 410.346C1455.52 412.948 1459.43 413.706 1458.48 417.701C1457.95 419.939 1455.28 425.749 1452.25 431.73C1448.88 438.633 1444.95 445.877 1443.17 449.732C1435.68 465.414 1428.16 482.996 1407.03 507.719C1388.96 530.984 1336.18 567.259 1282.65 565.818C1391.04 543.286 1277.1 567.881 1255.61 559.695C1253.05 559.438 1251.46 561.362 1240.9 560.824C1230.57 560.325 1211.15 556.19 1191.79 545.272C1180.37 538.719 1182.19 536.118 1181.07 533.109C1180.25 530.161 1176.66 526.749 1163.67 521.405C1178.95 539.828 1158.33 526.312 1147.92 519.318C1145.49 517.72 1133.35 508.008 1129.2 505.733C1127.65 504.85 1123.45 506.709 1121.74 505.765C1120.57 505.118 1120.83 502.817 1119.25 502.008C1112 498.259 1108.3 497.098 1107.64 496.169C1111.4 487.022 1108.18 491.944 1108.53 491.57C1108.79 490.256 1109.08 489.44 1109.53 488.803C1109.96 488.162 1110.48 487.686 1110.33 486.767C1109.22 486.763 1109.08 487.113 1109.27 487.429C1109.15 488.025 1108.93 490.091 1109.06 491.624C1109.18 493.158 1109.66 494.127 1109.71 492.512C1109.61 497.177 1111.18 494.581 1110.12 491.821L1092 494.189C1096.7 492.632 1106.81 490.095 1119.16 484.099C1131.72 478.175 1142.54 469.454 1146.8 466.622C1148.83 465.314 1144.5 470.529 1146.5 470.045C1147.47 469.803 1150.41 468.069 1155.41 463.307C1160.27 458.852 1167.02 449.978 1168.9 445.644C1169.28 444.794 1168.71 444.359 1168.2 443.924C1167.69 443.513 1167.2 443.166 1167.4 443.066C1167.68 442.892 1175.36 446.13 1168.52 449.327C1167.31 449.826 1166.95 446.621 1165.53 446.523C1163.54 446.994 1164.06 446.627 1150.4 470.904C1159.56 463.691 1152.24 481.022 1132.29 502.998C1112.55 525.001 1085.26 540.644 1077.2 543.926C1080.89 543.083 1084.69 542.079 1088.43 541.014C1070.98 548.398 1070.54 551.271 1066.84 553.161C1053.19 559.636 1034.88 563.754 1024.59 567.415C1012.14 571.789 1013.88 576.801 999.368 578.515C1002.98 578.8 1006.58 579.04 1010.19 579.23C1000.28 581.738 991.28 583.594 982.04 585.24C1001.7 573.77 977.136 586.032 976.014 586.269C973.54 587.005 976.62 583.501 972.474 584.653C972.039 584.786 973.214 587.345 966.643 588.816C952.957 591.75 955.073 587.886 949.465 588.763C948.942 588.842 951.145 591.043 941.522 592.88C912.909 598.053 941.432 591.097 942.579 590.529C943.951 589.831 932.652 581.379 958.273 581.193C949.725 581.38 948.194 577.005 947.239 577.039C946.259 577.13 932.097 579.555 931.43 579.745C924.687 582.027 931.107 584.407 929.82 585.102C928.607 585.732 911.57 583.355 908.499 592.801C899.995 584.881 912.128 584.886 925.665 582.158C926.575 581.184 923.227 580.674 919.497 580.382C916.04 580.067 912.266 579.963 911.885 579.996C893.24 581.473 904.028 587.638 900.204 592.416C899.872 592.816 899.381 593.043 898.821 593.164L879.936 593.135C875.376 593.259 868.595 590.106 877.538 596.16C850.556 594.17 867.359 592.121 865.626 591.464C863.121 590.409 853.934 590.899 852.88 590.454C851.328 589.841 857.26 588.608 851.056 586.811C850.07 586.536 839.129 588.411 852.079 592.476C834.453 588.854 835.492 591.983 831.192 584.478C816.861 593.52 824.792 575.466 820.779 573.702C810.226 568.848 810.716 578.847 809.985 579.141C804.622 580.979 776.623 567.404 769.8 565.629C774.944 560.486 791.769 574.376 797.097 574.631C813.601 575.677 777.228 563.852 791.072 559.622C785.896 560.214 780.714 560.714 775.532 561.129C770.061 552.71 781.561 555.299 760.84 548.12C755.516 550.998 775.25 553.825 770.239 555.688C767.204 556.843 755.399 551.913 754.723 552.841C753.85 554.021 765.052 557.369 762.517 558.569C756.415 561.327 721.85 538.642 750.868 550.505C742.915 546.668 743.393 536.415 735.643 535.513C730.612 534.794 747.753 559.253 713.988 537.441C715.43 533.261 728.403 544.239 729.049 544.138C729.815 544.005 731.926 533.864 731.727 533.191C730.595 531.111 694.309 515.272 690.827 506.471C690.09 513.059 667.001 491.098 663.519 490.427C662.512 490.277 663.1 495.088 662.111 494.814C655.921 493.017 646.911 478.131 641.44 473.441C635.108 468.065 634.047 471.071 633.683 470.773C631.014 468.348 634.537 468.598 632.848 467.206C630.162 465.1 613.268 449.957 612.168 449.453C611.825 449.325 612.348 454.42 608.15 451.563C607.401 451.017 610.631 448.542 598.554 439.851C584.069 429.294 604.124 451.946 595.822 450.1C591.683 437.995 587.65 442.441 585.787 440.046C585.205 439.258 582.842 429.939 576.441 424.067C581.404 427.794 586.571 431.616 591.615 435.223C587.761 430.376 578.58 423.009 575.581 418.542C574.143 416.395 578.784 415.073 574.717 411.122C573.864 410.298 563.303 414.373 576.684 421.216C574.812 424.548 571.966 418.341 568.781 416.577C568.273 416.289 562.771 419.483 562.422 413.623C562.411 412.987 566.786 411.667 568.635 409.312C570.147 406.561 570.927 404.909 558.806 397.598L578.168 415.119C576.931 415.016 575.512 414.981 573.902 415.036C573.221 415.06 573.419 417.978 572.719 418.045C572.231 418.073 569.37 414.909 568.832 414.928C568.26 414.943 568.449 418.079 567.722 418.157C564.039 418.598 566.597 408.535 570.897 412.441C569.992 410.331 569.106 408.255 568.238 406.214C565.755 413.391 564.671 406.277 562.54 405.17C548.161 397.799 554.814 407.642 551.207 408.287C545.796 409.669 554.678 400.31 547.905 400.773C547.269 400.872 550.493 408.578 540.635 399.901C542.292 400.513 544.059 401.217 545.932 402.02C548.226 395.15 539.604 399.198 539.358 399.216C535.119 398.256 538.567 396.986 531.837 398.037C531.28 398.159 531.007 396.156 529.88 396.66C527.651 397.746 528.443 398.606 529.858 399.658C531.261 400.697 533.689 402.194 533.237 403.572C533.006 404.237 530.189 403.234 528.196 402.468C526.199 401.684 524.723 400.962 524.771 400.627C524.824 399.095 525.484 398.95 526.425 398.829C527.37 398.708 528.498 398.591 528.691 396.703C528.803 396.032 525.457 395.239 524.153 395.305C523.419 395.299 523.206 395.447 523.375 395.498C523.544 395.553 524.077 395.495 524.363 395.148C525.952 393.544 526.369 383.85 527.03 394.639C526.904 384.021 527.874 391.189 528.286 391.069C532.146 389.498 532.306 389.319 536.314 388.998C537.239 388.88 536.578 385.654 537.021 386.051C537.302 386.282 538.417 389.564 539.635 390.169C540.471 390.593 542.116 389.154 542.597 387.7C543.156 386.211 542.54 384.916 541.956 384.172C540.893 382.593 540.935 383.909 539.202 381.295C539.535 380.669 539.788 381.366 538.684 382.015C538.194 382.306 536.815 380.584 536.592 380.752C536.558 380.712 536.013 384.243 536.679 384.737C537.52 385.175 539.366 383.292 540.248 383.029C541.21 382.668 541.305 383.47 542.628 384.852C543.211 385.323 539.484 381.89 543.719 386.336C540.932 386.463 528.963 400.1 515.755 423.748C518.857 407.456 529.26 397.511 533.751 390.538C534.419 389.47 536.89 387.204 534.189 385.641C529.9 389.7 524.98 400.496 517.672 409.951C517.432 410.254 515.64 407.702 514.575 408.75C512.619 410.602 512.285 421.03 510.439 422.121C510.072 422.237 509.36 415.57 506.506 416.018C499.142 417.244 510.539 424.127 508.49 427.828C507.23 429.992 490.631 448.998 487.921 461.263C486.999 467.009 491.691 460.525 495.533 454.594C499.249 448.947 502.586 443.366 503.651 445.163C500.595 454.653 496.41 463.354 484.977 479.506C482.251 483.254 478.569 488.123 473.687 493.728C471.266 496.503 468.58 499.419 465.522 502.482C461.955 506.072 457.676 510.062 452.686 514.121C443.379 521.598 428.012 532.84 404.372 540.522C382.14 548.528 345.796 549.636 321.432 541.654C319.753 541.183 325.985 543.692 327.458 544.768C329.154 545.647 324.311 546.695 304.483 538.926C292.265 533.807 283.642 528.313 277.013 523.473L468.14 486.998C464.797 491.016 461.339 491.245 459.057 493.663C456.158 496.831 447.708 509.262 445.315 509.916C445.012 510.006 443.739 505.257 443.925 504.824C446.519 498.713 451.852 499.898 452.295 499.409C453.775 497.684 453.465 494.769 454.713 493.179C456.734 490.606 459.359 489.955 461.974 486.293C463.705 483.863 459.613 484.33 460.833 482.25L282.057 516.368C282.621 516.762 283.237 517.194 283.917 517.668C287.054 519.479 304.136 535.663 337.448 542.729C373.542 550.487 405.986 538.337 407.509 533.426C407.24 532.737 398.447 537.933 371.501 540.332C344.319 543.083 306.12 532.553 283.203 514.755L459.175 481.172C443.56 503.579 406.263 542.805 400.949 548.956C407.653 543.826 414.069 538.575 420.256 533.208C407.706 543.764 396.558 562.665 389.019 556.58C364.488 577.441 335.368 599.225 289.642 613.006C245.335 628.144 174.78 620.749 132.597 590.797C118.093 579.903 128.797 581 107.547 565.225C110.923 570.923 115.444 577.214 120.087 583.056C105.969 573.165 73.0022 531.269 69.3228 525.971C68.6663 525.247 63.2247 527.415 56.4397 517.664C56.2408 517.374 56.0518 517.089 55.8723 516.81C53.1807 512.738 56.0017 509.954 55.1976 507.281C54.5076 504.997 52.1097 503.307 51.9333 502.624C51.795 502.081 53.7901 500.515 53.4572 499.212C52.3754 495.12 48.2994 501.828 52.8346 493.921C53.6434 494.566 54.4549 495.219 55.2405 495.838C53.513 491.1 52.813 483.542 58.3736 488.446C59.3368 489.307 56.7089 489.783 57.2348 490.555C77.6497 521.086 65.701 493.54 55.3781 485.323C56.5066 480.417 44.3314 467.421 44.4982 466.596C44.8326 465.327 48.9539 465.965 48.5665 461.328C48.4818 460.07 32.6374 443.961 41.4858 447.133C43.2752 447.656 49.4502 457.035 51.189 459.151C53.3017 449.133 35.4393 444.884 34.7798 443.818C31.487 438.218 47.8358 448.71 39.0429 437.244C32.2865 428.756 35.3266 439.727 30.9302 438.154C28.535 437.238 24.6465 425.348 19.9001 431.023C16.8343 429.206 20.9585 427.776 20.8336 427.275C20.6598 426.733 14.4208 424.123 14.1678 422.014C14.1146 421.725 17.0408 419.202 17.0577 418.816C17.0343 418.454 15.8638 417.588 14.756 416.965C13.6454 416.336 12.6759 415.998 12.5253 416.09C12.3218 416.219 11.1561 419.466 10.3849 419.91C9.93597 420.161 9.14646 419.661 8.6195 419.376C8.08179 419.083 7.89361 419.032 7.6602 419.445C7.28919 420.063 7.32525 420.215 7.58506 420.86C7.81901 421.487 8.09077 422.516 6.79502 423.884C6.42368 423.06 5.55694 422.995 5.20358 423.809C4.7962 424.594 5.09187 426.289 5.47906 428.074C5.42069 427.587 4.78158 427.037 4.43113 426.752C4.03031 426.444 3.85137 426.393 3.72627 426.497C2.39989 428.874 2.12261 430.275 3.10849 430.869C4.11823 431.473 5.85476 430.972 5.50042 428.501C6.11956 431.252 4.60465 431.97 4.87678 434.418C4.78533 435.008 8.52912 436.401 9.65216 437.646C9.46086 437.832 4.35497 438.37 4.91093 439.699C5.44541 440.88 8.42289 442.574 16.403 444.026C23.4528 445.701 40.5418 445.034 44.6662 443.857C54.2093 441.529 40.0231 443.469 30.9294 442.288C21.5889 441.305 16.2472 439.018 15.7346 437.798C15.6946 437.573 19.6506 437.289 26.7176 436.464C33.1812 435.848 45.6517 433.109 46.1459 432.666C46.7274 431.472 43.5286 431.478 39.3506 431.501C35.5037 431.514 30.7825 431.464 27.5827 431.178C20.7123 430.585 17.4943 429.565 18.7268 427.878C23.361 427.748 29.1663 427.91 40.3725 425.941C18.2055 425.794 12.9342 421.211 10.0809 420.048C7.53522 418.443 8.34541 418 9.55457 416.183C8.62741 416.378 9.72754 417.597 14.9101 417.91C19.6276 418.311 30.0928 416.444 30.0005 411.328C30.0315 409.247 26.3925 407.449 24.5788 405.902C22.45 404.348 21.5023 403.21 21.6723 402.708C22.5077 400.905 24.347 401.479 28.5886 402.254C30.5813 402.633 33.4877 402.986 35.9983 403.067C38.7097 403.147 41.1061 402.946 41.3748 402.849C42.323 402.446 42.751 402.124 42.7064 401.909C42.7064 401.909 42.7064 401.909 42.7063 401.909C42.6268 401.351 39.3886 401.502 35.84 401.305C32.4858 401.113 29.1434 400.602 26.8282 399.977C22.2274 398.695 21.1345 397.511 21.0393 397.001C20.9604 395.134 25.6553 388.543 25.9943 386.875C25.9268 386.706 24.5053 385.909 24.2795 384.963C23.9404 384.001 24.2892 382.88 24.8263 381.54C25.41 380.188 26.0272 379.621 27.4547 379.411C28.7628 379.211 31.272 379.173 31.5023 379.001C32.4098 378.153 28.3109 377.269 27.4388 376.264C26.286 375.285 26.9035 374.711 27.0501 374.236C27.1427 373.992 27.2613 373.058 27.5904 372.134C27.8878 371.205 28.5224 370.278 28.621 369.826C28.721 369.378 28.4789 368.588 28.7101 367.63C28.91 366.666 29.5902 365.575 30.3162 364.284C31.4238 362.368 30.6712 360.396 30.9741 360.139C31.0622 360.049 31.9636 360.242 33.3925 360.75C34.7401 361.214 36.414 361.949 36.652 361.858C37.3707 361.586 37.0318 358.539 37.5206 358.063C38.2191 357.352 39.9819 359.311 40.1405 358.322C40.4139 357.435 35.3708 345.626 35.8574 343.538C36.8392 339.391 45.1324 352.585 39.831 333.53C39.7875 333.38 36.6202 333.688 36.6223 333.615C35.1608 330.327 46.887 328.077 33.6597 326.352C46.4615 325.945 47.8251 326.29 46.5759 323.625C45.4661 321.272 40.7468 317.901 43.8282 315.231C46.3888 312.96 57.8331 316.535 57.823 316.278C58.3282 312.802 53.7269 313.571 53.1744 311.614C52.8514 310.356 64.168 311.725 62.9979 308.679C62.6302 306.965 50.8946 302.566 50.0599 302.292C45.4724 298.628 52.5974 298.35 51.9378 296.548C51.7787 295.253 42.0693 292.764 41.6221 292.67C41.4619 291.972 55.7562 291.312 58.3738 291.027C59.4735 290.838 58.491 289.686 57.3641 288.607C56.1483 287.494 54.7466 286.459 55.5363 286.454C65.5238 286.47 76.4468 300.463 66.3544 284.151C65.8141 283.163 59.2095 280.944 58.9336 280.771C55.6272 276.437 68.3454 280.686 70.9966 279.419C76.3783 277.114 58.3273 272.046 73.7198 275.362C63.633 268.472 59.1651 264.87 34.2982 263.587C52.595 264.129 60.3764 266.608 67.3675 267.547C74.0114 268.647 78.0885 268.942 79.9466 268.17C81.7739 267.42 81.6792 265.759 78.0477 263.016C74.3131 260.428 68.3784 256.46 52.1101 252.945C71.5997 257.83 69.8042 251.869 74.9569 253.435C78.5747 254.429 93.7615 268.925 91.642 252.514C91.5602 250.397 77.8995 246.74 83.2826 245.285C111.901 259.981 85.677 243.599 84.9876 243.087C87.1462 239.448 106.66 248.039 119.996 258.178C133.997 268.354 144.381 279.597 148.066 282.276C156.441 288.359 167.166 290.186 168.655 291.678C173.576 296.7 167.182 294.781 167.43 296.733C167.908 298.747 185.418 308.633 185.752 309.673C187.195 313.388 181.813 313.052 181.928 313.477C183.307 318.361 201.158 335.361 204.366 341.255C206.328 339.683 197.964 328.692 206.399 332.99C216.169 338 207.692 345.041 207.477 345.532C220.987 363.409 232.952 381.129 244.246 399.085C248.864 406.75 253.17 409.222 249.118 406.342C250.657 403.851 252.483 404.629 252.618 405.138C252.723 405.405 252.485 405.599 252.217 405.633C251.946 405.666 251.69 405.587 251.82 405.446C253.25 403.725 255.387 404.054 253.754 402.383C252.408 400.791 246.014 398.517 244.425 399.248C246.761 398.668 249.161 398.308 251.286 397.981C251.545 390.341 238.913 395.403 234.17 392.756C232.372 391.753 235.984 389.267 236.012 389.122C233.771 386.346 230.507 388.477 232.957 391.917C228.235 388.707 229.059 392.461 226.754 393.087C226.633 393.126 227.141 390.263 225.101 389.534C224.632 389.363 223.413 389.529 222.652 389.401C221.842 389.282 221.406 388.832 220.898 387.761C220.247 386.945 217.647 376.723 220.904 385.144C221.266 383.861 221.909 383.38 222.333 383.451C222.773 383.518 223.04 384.118 223.229 384.87C223.614 386.373 223.767 388.462 224.632 388.157C224.775 388.101 224.381 386.885 224.701 385.83C225.057 384.799 226.041 383.781 230.213 384.662C229.169 380.165 225.994 379.881 223.953 380.744C221.834 381.6 221.007 383.381 220.534 382.952C219.576 382.096 219.725 380.13 221.972 378.988C224.07 377.834 228.77 377.885 230.357 381.388C228.632 374.426 231.342 380.259 235.141 380.11C239.5 380.052 237.819 377.845 240.325 378.107C247.432 379.22 243.243 383.494 249.916 380.647C241.157 392.454 257.404 385.002 261.976 383.969C257.919 380.695 250.856 376.966 243.117 374.988C243.687 374.342 244.273 373.703 244.875 373.073C242.716 372.764 240.576 372.573 238.499 372.493C238.772 373.222 239.029 373.952 239.278 374.684C228.944 369.311 227.519 375.346 226.929 375.32C218.515 376.938 215.529 379.005 216.337 378.523C216.388 378.496 215.836 377.498 215.596 376.835C215.399 376.139 215.327 375.933 217.547 376.591C219.05 376.932 220.22 380.456 221.048 379.206C216.76 370.377 221.372 376.511 221.912 376.106C223.379 374.936 222.852 372.214 222.968 372.082C224.667 370.133 228.168 367.355 230.416 364.448C230.429 364.382 227.01 363.675 229.24 362.6C229.863 362.431 244.881 364.823 246.193 356.245C244.387 357.203 242.508 358.199 240.686 359.073C243.276 358.099 249.368 344.074 244.412 345.158C241.646 345.591 244.922 354.881 238.287 350.607C239.998 349.75 242.88 346.073 245.249 342.154L347.303 226.566L430.898 306.724C416.467 296.521 391.599 283.476 356.042 284.644C321.826 286.114 299.33 300.473 289.364 307.753C278.626 315.788 274.206 321.207 271.538 324.184C268.732 327.485 267.717 328.966 267.072 329.83C266.441 330.703 266.32 330.878 266.364 330.785C266.408 330.696 266.622 330.349 266.89 329.94C267.461 329.059 268.07 328.257 268.504 328.073C268.865 327.956 270.262 330.714 270.736 330.522C270.857 330.891 274.166 323.292 275.79 322.215C276.648 321.814 276.09 326.325 277.081 326.397C277.605 326.858 284.642 315.368 282.338 312.846C281.733 316.89 276.664 324.42 276.451 318.893C276.416 318.225 279.726 316.238 279.725 315.298C279.518 307.036 270.526 326.947 269.955 327.77C270.534 318.203 285.502 298.069 293.649 278.164C300.109 272.027 291.162 291.049 297.679 283.805C311.527 268.519 297.099 277.327 297.082 276.656C297.172 270.86 318.81 262.892 309.681 257.033C315.459 251.091 315.013 254.142 320.559 243.5C319.039 244.361 317.518 245.24 316.013 246.114C317.794 231.418 350.233 217.103 349.7 219.977C347.917 226.8 334.51 235.655 333.895 236.798C332.935 238.509 338.398 249.066 319.735 259.556C321.444 270.143 341.208 236.943 335.344 254.344C339.818 244.145 380.119 206.41 386.725 198.685C387.344 197.707 378.433 195.078 393.25 188.287C400.288 185.174 386.066 196.227 389.868 195.463C395.151 194.67 425.698 169.38 469.233 157.524C512.762 144.853 555.321 150.506 566.797 152.543C568.378 152.82 567.385 154.976 568.925 155.244C573.739 155.942 591.437 156.655 598.546 160.109C583.417 151.085 616.029 160.589 621.953 163.95C632.567 168.978 630.256 172.533 634.511 175.333C649.937 185.648 678.178 190.693 684.455 205.46C689.166 197.791 700.254 220.896 708.356 226.998C710.108 228.279 712.336 229.381 714.531 230.137L729.291 243.494C729.103 243.113 729.406 243.262 729.534 243.206C729.701 243.193 729.904 243.21 730.135 243.247C730.25 243.264 730.376 243.292 730.5 243.314C730.6 243.311 730.703 243.309 730.807 243.307C731.017 243.303 731.234 243.3 731.456 243.294C732.336 243.263 733.317 243.227 733.968 242.807C734.663 242.435 735.209 241.87 735.53 241.106C735.805 240.294 735.799 239.222 735.647 238.093C740.469 243.895 749.144 250.22 755.796 255.814C756.94 256.778 753.631 257.269 755.646 258.856C755.837 258.98 757.817 257.301 759.545 258.559C774.037 268.928 764.095 267.149 765.425 270.571C766.184 272.472 766.925 273.735 767.594 274.528C759.464 268.013 749.987 260.375 747.733 258.271C745.639 264.305 765.3 273.323 768.8 278.307C768.917 278.484 766.305 280.375 766.446 280.529C766.449 280.532 766.453 280.535 766.456 280.538C767.938 282.226 779.579 290.593 779.754 285.812C779.787 284.531 774.793 280.352 768.818 275.516C770.836 276.359 772.007 272.694 772.38 272.823C776.781 274.42 782.928 284.168 785.55 286.893C786.162 287.528 787.547 285.744 787.661 285.831C790.019 288.422 784.92 292.583 791.824 289.614C791.691 299.842 781.886 283.073 779.589 287.871C777.625 291.95 811.051 314.964 814.489 309.156C814.208 309.786 814.157 310.778 814.506 312.188C815.277 315.365 824.508 320.75 826.629 320.682C827.008 320.654 830.228 315.423 830.569 315.574C831.392 315.993 839.463 326.639 845.103 325.572C843.453 323.651 841.809 321.699 840.165 319.713C852.718 326.977 851.521 323.987 848.391 320.195C848.195 320.065 848.112 319.75 847.929 319.618C845.442 316.658 842.027 313.069 842.218 312.614C843.134 311.272 863.703 321.39 857.202 324.261C856.341 324.756 848.06 317.347 850.816 323.488C851.331 324.609 857.921 326.741 858.012 327.261C858.911 331.143 843.527 327.476 843.038 331.952C848.402 330.338 851.652 334.465 855.881 335.385C857.794 335.801 859.526 333.209 859.755 333.256C863.133 333.967 860.057 336.081 861.111 336.485C861.767 336.758 870.274 332.98 865.454 341.203C886.433 341.816 873.635 337.481 861.514 332.389C866.803 331.115 873.091 335.541 876.26 335.805C877.407 335.912 877.888 332.732 879.779 332.727C881.692 332.725 886.23 334.795 889.93 336.463C893.694 338.179 896.425 339.541 897.424 340.063L882.105 340.04C882.208 340.044 882.307 340.049 882.403 340.053C882.303 340.084 882.207 340.116 882.112 340.149L897.416 340.172C896.209 341.2 896.163 344.19 897.123 344.413L882.392 344.391C882.586 344.387 882.786 344.373 882.992 344.345C886.574 343.859 883.236 339.483 883.903 338.942C884.842 338.421 900.577 339.253 903.062 338.303C891.427 341.168 894.476 344.34 904.518 343.631C903.226 344.772 901.891 345.91 900.513 347.045C906.297 345.113 918.806 348.685 921.366 346.635C921.785 346.314 919.67 343.731 919.908 343.55C922.574 341.927 931.427 343.234 931.651 342.144C931.782 341.284 927.824 339.617 928.872 338.19C928.979 337.915 933.425 340.998 936.129 339.358C937.13 338.755 935.833 336.259 936.064 336.04C937.903 334.224 937.953 338.987 941.581 337.225C944.019 335.962 944.661 331.055 947.564 331.561C936.199 329.34 946.038 328.712 947.386 326.176C947.498 325.824 945.803 321.177 947.534 323.013C948.536 332.454 951.323 326.396 949.626 327.402C949.605 327.452 951.396 330.182 951.157 330.408C951.12 330.431 949.956 328.544 949.441 328.705C948.19 329.11 946.97 330.002 946.503 330.508C945.969 331.074 946.002 331.379 946.285 331.586C946.861 331.991 948.36 332.168 948.54 333.509C948.752 334.472 943.492 335.88 943.222 336.298C943.144 336.4 945.02 337.718 944.796 337.901C944.44 338.175 942.966 335.888 943.846 333.773C943.903 333.652 944.724 334.03 945.685 333.825C946.671 333.575 947.686 332.925 949.031 329.09C949.84 326.839 950.293 323.3 947.506 326.294C943.002 331.168 941.489 335.495 941.816 336.096C942.075 336.848 943.813 335.278 943.695 332.832C943.704 330.478 941.65 331.409 939.995 332.877C939.202 333.56 938.676 334.146 938.551 334.202C938.412 334.286 938.619 333.883 938.652 333.812C938.68 333.741 939.766 335.475 940.598 334.721C941.506 333.998 937.837 326.215 948.164 311.359C948.505 310.621 962.37 299.703 962.528 300.331C962.339 300.73 958.252 306.859 955.909 311.559C953.417 316.42 952.316 319.796 953.59 319.103C953.76 318.993 955.197 316.553 957.39 313.377C959.519 310.275 962.366 306.677 963.504 306.084C966.234 304.589 981.581 307.047 984.385 304.458C991.951 297.426 985.054 300.251 990.186 295.376C995.495 290.196 1011.36 278.885 1025.53 273.115C1039.81 266.943 1050.53 264.697 1050.44 262.198C1043.57 263.573 1035.89 265.666 1027.68 268.946C1049.63 259.813 1053.72 260.051 1055.14 258.709C1056.36 257.776 1053.55 257.597 1056.12 256.634C1061.61 254.696 1061.1 258.79 1071.66 258.028C1072.1 258.005 1074.01 257.799 1076.77 257.569L1064.02 259.236C1072.21 257.14 1091.36 254.241 1091.1 252.985C1074.61 257.352 1080.32 251.788 1079.5 251.722C1076.52 251.764 1073.21 255.154 1069.32 255.772C1067.03 256.132 1065.11 256.43 1063.51 256.653L1076.6 254.942C1056.51 256.051 1072.34 251.839 1076.29 250.045L1062.56 251.84C1063.14 251.325 1063.25 250.964 1062.37 250.896L1076.23 249.085C1076.03 249.059 1075.79 249.039 1075.51 249.025C1072.09 248.824 1065.46 252.047 1063.98 252.16C1059.21 252.436 1058.06 249.386 1054.45 250.338C1045.75 252.778 1056.97 255.067 1056.24 255.492C1050.83 258.18 1013.78 268.469 1034.17 255.529C1020.01 258.869 1020.41 265.458 1008.24 269.662C983.474 280.17 1017.5 258.695 1026.76 255.614C1050.26 244.603 1059.52 244.928 1075.87 243.603L1061.3 245.507C1064.93 244.849 1069.16 244.076 1074.37 243.124C1081.88 241.719 1090.95 238.021 1094.75 237.661C1097.36 237.159 1118.75 247.253 1120.17 231.582C1129.12 233.433 1141.41 245.305 1149.7 246.292C1157.26 247.17 1155.94 241.247 1156.68 241.151C1157.9 240.993 1167.05 243.406 1170.25 243.432C1174.04 243.425 1172.82 240.854 1178.68 241.548C1193.37 243.553 1190.92 249.128 1192.2 249.89C1206.17 259.465 1202.23 249.445 1205.91 250.107C1210.37 250.375 1248.39 272.61 1255.26 275.147C1251.83 274.44 1248.25 273.696 1244.71 273.032C1248.31 279.164 1256.6 277.34 1253.36 282.908C1259.8 274.606 1266.22 286.806 1268.95 288.306C1270.1 288.918 1270.98 287.38 1272.36 288.191C1278.06 291.528 1287.74 299.868 1290.33 300.563C1296.21 302.255 1294.19 297.734 1289.7 292.069C1285.24 286.399 1277.57 279.266 1276.37 278.275C1278.96 280.014 1287.43 284.996 1293.28 287.571C1299.1 290.114 1302.89 290.493 1299.23 284.954C1298.06 283.214 1292.32 284.927 1291.18 284.371C1283.57 280.665 1291.37 280.911 1291.05 280.214C1290.52 279.077 1283.48 279.207 1282.38 277.907C1282 277.478 1287.05 276.253 1279.59 271.285C1285.98 270.957 1302.86 286.109 1304.69 286.344C1305.14 286.465 1305.34 284.136 1306.54 283.694C1307.67 283.195 1310.22 284.913 1313.13 291.413C1313.42 290.734 1313.71 290.055 1314 289.375C1319.28 292.675 1323.22 293.941 1316.65 290.56C1316.86 292.468 1318.25 296.798 1314.7 294.424C1313.39 293.648 1313.33 292.525 1313.92 291.683C1314.48 290.831 1315.4 290.172 1315.26 290.057C1314.07 289.576 1312.21 287.388 1295.44 284.261C1280.89 280.032 1235.85 285.42 1214.12 303C1192.14 319.332 1190.37 327.21 1188.43 329.515C1187.78 330.674 1187.68 330.956 1187.73 330.833C1187.77 330.722 1187.92 330.335 1188 330.02C1188.17 329.383 1187.05 323.925 1187.17 323.34C1187.45 322.118 1188.88 319.229 1190.27 316.07C1191.67 312.905 1193.2 308.887 1193.27 307.817C1193.42 306.254 1190.03 306.847 1190.54 305.547C1191.02 304.322 1193.56 306.423 1193.79 306.081C1195.25 304.052 1197.17 288.277 1199.87 276.346L1229.97 214.426C1232.79 211.112 1235.31 208.527 1237.13 207.416C1235.85 208.523 1233.74 211.804 1231.55 215.736L1201.87 276.78C1201.8 285.141 1202.84 294.336 1204.29 294.391C1204.58 294.411 1207.94 290.184 1207.1 288.87C1209.83 287.863 1204.48 281.092 1205.56 277.578L1234.46 218.142C1234.67 217.928 1234.9 217.747 1235.15 217.608C1235.57 217.381 1237.89 221.562 1242.96 216.711C1244.7 215.039 1246.04 207.984 1253.07 205.595C1257.48 197.349 1292.65 163.955 1291.07 158.358C1290.94 158.122 1285.34 162.292 1286.76 157.512C1288.63 151.157 1291.91 160.978 1297.02 155.996C1297.8 155.246 1309.71 139.471 1309.7 138.626C1309.72 130.872 1297.17 142.884 1296.88 142.332C1296.16 140.947 1304.63 129.349 1305.26 129.118C1305.89 128.916 1303.46 142.092 1310.52 129.69C1308.89 130.431 1307.26 131.172 1305.64 131.913C1308.68 125.854 1312.56 128.254 1313.8 127.198C1317.65 123.924 1315.79 115.394 1327.42 114.668C1330.49 114.481 1330.19 118.772 1330.62 118.785C1334.57 118.768 1330.38 111.106 1337.47 112.032C1338 112.099 1335.14 121.236 1345.03 109.313C1343.9 109.764 1342.77 110.215 1341.65 110.666C1342.04 108.158 1351.46 95.588 1353.04 94.1582C1357.66 89.9818 1357.44 96.7775 1361.01 91.6888C1354.08 91.1093 1365.53 76.1252 1368.62 80.0931C1365.55 74.1314 1379.43 64.8417 1384.34 59.1411C1384.37 59.1013 1384.41 59.0609 1384.44 59.0197L1365.31 90.6459C1372.93 70.5213 1390.33 44.0449 1394.41 40.6241C1398.88 36.3645 1400.64 40.3678 1409.04 33.5485C1410.94 31.6519 1434.5 6.95144 1462.28 0.781083C1467.71 -0.653531 1479.9 2.67859 1471.84 7.47696C1458.02 14.979 1429.28 27.2004 1432.3 30.7694C1434.77 33.196 1468.14 10.6157 1478.94 9.12806C1502.44 3.25742 1507.11 5.95162 1506.72 7.4365C1506.24 9.22369 1500.61 11.8426 1501.3 12.4693C1505 14.8941 1527.33 12.5506 1528.12 13.2091C1531.86 14.4108 1516.73 17.993 1516.71 20.3405C1517.14 22.8228 1536.66 27.1549 1532.18 28.299C1526.37 29.3295 1507.75 27.3008 1506.41 28.0135C1491.58 33.8529 1514.01 35.6307 1519.09 38.7058C1520.75 39.5016 1514.7 41.8079 1516.04 41.9489C1535.83 44.5563 1519.56 32.221 1532.94 32.6727C1544.64 33.6453 1529.56 37.6523 1530.14 37.9955C1530.74 38.0906 1544.12 38.6993 1545.91 40.5382C1546.81 40.4492 1512.84 49.5674 1515.12 54.0171C1525.68 51.6211 1536.03 50.749 1545.86 50.8681C1546.29 55.614 1532.34 51.3137 1530.69 52.0503C1527.72 53.088 1536.07 55.4539 1535.64 57.0347C1535.33 57.953 1526.21 61.4941 1534.46 62.8942C1537.23 63.4418 1543.57 60.1113 1552.62 65.0351C1518.53 66.2579 1542.05 71.0655 1542.6 72.7279C1543.17 74.4837 1528.43 77.3949 1546.09 78.1512C1545.68 87.6098 1545.41 80.9903 1540.4 82.2526C1534.32 84.1615 1547.96 87.0029 1526.45 85.0048C1528.17 88.9216 1544.4 89.2124 1545.1 89.984C1545.77 90.3802 1542.03 92.133 1543.19 93.0048C1556 103.461 1546.93 98.2107 1549.87 104.211C1550.18 104.641 1561.31 109.507 1552.31 108.098C1536.35 106.026 1528.38 101.275 1527.13 114.641C1537.61 119.165 1551.33 113.625 1555.21 114.586C1560.47 115.876 1554.33 116.939 1554.78 117.869C1554.96 118.153 1559.27 119.233 1559.28 119.486C1559.19 129.822 1540.5 114.261 1533 116.85C1534.83 118.373 1536.51 119.974 1538.13 121.636C1535.77 121.506 1533.47 121.506 1531.22 121.641C1542.08 124.84 1531.1 122.615 1529.64 131.149C1529.33 133.02 1534.57 129.503 1528.75 135.072C1533.27 135.932 1531.66 137.67 1535.98 135.489C1535.82 137.136 1533.29 138.728 1531.01 140.426C1528.69 142.103 1526.76 143.881 1525.91 144.994C1530.19 145.876 1531.14 143.986 1532.07 142.136C1532.97 140.397 1533.97 138.723 1539.05 142.562C1541.72 138.778 1536.17 138.889 1536.68 138.31C1538.6 136.041 1541.42 140.13 1548.76 133.24C1550.06 132.149 1547.1 126.866 1553.02 128.718C1553.67 128.916 1556.29 133.636 1556.12 133.88C1554.67 136.406 1551.51 134.274 1551.04 135.408C1550.57 136.435 1554.62 136.996 1554.56 137.332C1553.49 140.765 1550.94 137.604 1551.07 138.84C1551.68 141.585 1561.2 152.925 1545.97 145.646C1560.72 146.032 1548.57 141.906 1543.17 142.496C1541.84 142.629 1541.06 144.666 1539.33 145.155C1537.09 145.788 1534.97 144.627 1534 145.006C1533.49 145.21 1534.64 146.623 1534.83 147.778C1535.07 148.964 1534.2 149.651 1530.92 149.085C1532.7 151.486 1534.89 151.396 1537.87 151.529C1540.78 151.639 1544.33 152.042 1546.29 154.514C1550.23 159.592 1547.51 160.974 1544.23 161.362C1540.88 161.732 1537.44 161.681 1536.88 161.97C1536.56 162.112 1537.1 165.142 1536.86 165.286C1536.69 165.392 1535.18 164.882 1534.05 164.83C1532.88 164.765 1532.21 165.099 1532.23 166.303C1532.25 167.51 1532.38 167.468 1532.61 167.442C1532.84 167.416 1533.21 167.415 1533.23 168.671C1533.22 169.509 1532.5 170.699 1532.63 171.809C1532.72 172.912 1533.15 173.899 1532.94 174.512C1532.8 174.927 1532.95 173.376 1533.88 172.754C1534.74 172.122 1536.03 172.469 1535.64 176.115C1532.55 176.125 1532.27 177.317 1534.58 177.346C1534.18 180.339 1533.48 183.188 1533.04 185.956C1534.25 186.819 1537.35 183.554 1543.73 184.165C1540.09 191.243 1540.85 192.43 1544.41 191.806C1547.88 191.176 1552.43 187.257 1552.81 187.524C1553.67 187.864 1551.82 198.309 1550.81 200.147C1554.89 199.647 1561.98 195.609 1567.08 191.904C1572.19 188.177 1576.85 185.689 1574.56 196.683C1574.84 194.7 1577.23 192.653 1579.73 190.435C1582.2 188.307 1584.87 185.734 1585.01 185.866C1586.41 187.676 1583.36 194.416 1580.65 198.479C1577.94 202.749 1575.28 205.734 1577.69 205.792C1583.48 205.545 1582.58 197.92 1586.56 191.502C1587.85 189.411 1589.14 187.206 1590.42 184.794L1572.33 214.703C1562.78 232.639 1579.6 240.589 1562.4 256.55C1563.28 256.639 1564.15 256.727 1565.03 256.816C1546.98 276.771 1528.93 296.726 1510.88 316.681C1509.01 328.788 1494.1 352.782 1484.79 362.925C1482.92 364.97 1471.71 373.332 1470.61 373.753C1468.55 374.509 1474.88 366.197 1470.27 368.506C1469.31 369.001 1453.56 385.836 1457.32 386.811C1459.28 385.086 1463.07 377.745 1464.55 377.256C1469.42 375.687 1461.43 386.024 1451.46 397.952L1481 337.206C1476.59 357.783 1469.15 382.761 1469.69 385.291C1471.3 383.752 1472.91 382.19 1474.52 380.605C1473.53 383.213 1472.53 385.79 1471.51 388.338C1470.4 391.229 1469.27 394.12 1468.12 396.959ZM1335.38 99.0597C1334.38 94.7411 1340.71 91.2462 1342.49 87.5511C1344.93 82.4342 1340.43 66.5752 1348.35 78.357C1344.02 85.2579 1339.7 92.1588 1335.38 99.0597ZM1256.06 186.547C1260.97 183.588 1264.15 191.67 1258.88 193.07C1258.29 193.22 1249.43 190.56 1256.06 186.547ZM1295.04 145.154C1294.98 145.394 1291.84 148.867 1291.64 148.917C1286.62 150.199 1296.09 139.738 1295.04 145.154ZM1315.36 297.159C1317.19 297.891 1319.84 291.43 1316.93 292.961C1316.75 293.059 1315.22 297.098 1315.36 297.159ZM1316.39 298.003C1315.36 300.984 1316.32 299.685 1316.89 297.497C1317.22 296.429 1317.55 295.187 1317.99 294.4C1318.41 293.601 1319 293.283 1319.13 293.712C1319.16 293.8 1318.8 294.966 1318.09 295.966C1317.4 296.982 1316.44 297.856 1316.39 298.003ZM1270.7 173.618C1272.14 175.601 1267.69 179.169 1265.73 180.643C1264.11 179.212 1269.41 175.588 1270.7 173.618ZM1190.66 331.435C1191.48 331.872 1192.35 331.051 1193.03 329.019C1193.63 327.205 1194 324.189 1192.96 323.424C1193.17 324.447 1192.02 326.976 1191.23 328.518C1190.36 330.293 1189.89 331.09 1190.66 331.435ZM1248.42 293.055C1245.81 293.381 1223.31 303.032 1223.54 301.689C1232.1 293.355 1256.76 289.111 1248.42 293.055ZM1271.93 266.687C1271.23 266.774 1271.81 279.311 1261.18 264.795C1259.55 262.641 1268.6 264.888 1268.01 264.11C1266.84 262.533 1265.75 261.479 1264.76 260.814C1272.06 264.164 1278.8 268.036 1279.03 268.94C1280.32 273.33 1272.32 266.694 1271.93 266.687ZM1193.29 237.427C1190.87 238.341 1178.19 233.618 1175.31 232.246C1174.81 231.99 1178.26 228.201 1172.05 227.019C1167.03 226.137 1173.39 232.273 1163.92 229.424C1154.16 226.678 1168.08 226.17 1167.27 225.803C1166.17 225.127 1150.37 224.297 1151.24 221.829C1151.94 219.817 1168.48 224.29 1172.51 224.983C1177.75 225.726 1172.37 220.933 1180.73 223.845C1185.91 225.724 1181.4 230.506 1182.43 231.096C1183.42 231.468 1202.03 233.987 1193.27 237.401C1193.27 237.41 1193.28 237.418 1193.29 237.427ZM1262.76 259.918C1263.38 260.061 1264.05 260.336 1264.76 260.814C1264.1 260.508 1263.42 260.214 1262.76 259.918ZM1327.36 112.726C1324.19 113.751 1327.75 105.856 1331.57 104.917C1333.06 106.08 1327.86 112.559 1327.36 112.726ZM1253.78 260.174C1243.58 252.861 1252.76 255.496 1262.76 259.918C1259.25 259.123 1257.12 262.64 1253.78 260.174ZM1207.1 288.87C1206.61 289.053 1205.91 289.076 1204.83 288.848C1206.18 288.391 1206.83 288.468 1207.1 288.87ZM1201.51 303.356C1203.48 309.16 1205.99 299.004 1203.64 298.324C1202.74 298.18 1201.42 303.169 1201.51 303.356ZM1312.13 294.699C1312.21 294.951 1309.56 296.354 1308.29 297.474C1306.94 298.53 1307.72 299.845 1312.9 298.625C1310.15 295.422 1314.39 296.838 1314.74 295.997C1315.36 294.867 1314.12 294.058 1312.08 292.892C1310.04 291.735 1307.26 290.252 1306.59 289.129C1302.58 291.96 1311.95 293.305 1312.12 294.693C1312.12 294.695 1312.12 294.697 1312.13 294.699ZM985.776 254.52C991.002 246.782 1017.44 233.719 1031.45 230.313C1025.83 234.551 1001.77 242.863 985.776 254.52ZM230.162 360.338C236.576 349.206 246.273 354.366 235.077 361.047C234.841 361.192 230.459 361.668 230.162 360.338ZM358.25 196.082C364.557 196.602 355.175 206.73 348.086 211.785C346.464 212.904 338.036 215.156 342.834 208.312C346.968 212.312 357.108 204.53 358.25 196.082ZM1246.16 259.439C1241.49 260.477 1232.29 253.165 1226.54 250.023C1231.31 249.283 1242.12 256.033 1246.16 259.439ZM271.385 333.292C272.052 332.865 268.91 329.962 268.486 330.013C266.571 330.2 269.03 332.631 271.385 333.292ZM1274.79 277.122C1274.25 278.994 1262.23 273.566 1263.78 269.055C1266.12 270.844 1275.29 275.993 1274.79 277.122ZM1016.43 239.101C1023.65 236.446 988.732 255.048 979.031 263.595C977.927 260.387 1011.59 239.079 1016.43 239.101ZM286.02 301.829C287.56 299.61 290.725 293.807 289.636 292.29C288.178 290.534 284.249 299.573 286.02 301.829ZM190.798 288.898C191.122 288.098 203.31 293.395 205.662 298.292C210.136 307.441 191.034 289.693 190.798 288.898ZM314.37 301.638C393.31 276.183 302.215 302.382 308.397 299.715C314.899 296.48 324.255 292.503 336.761 289.884C349.912 287.052 366.239 286.501 380.791 289.072C409.076 294.243 423.111 305.262 428.848 309.612L347.513 231.62L248.218 344.083C248.342 344.55 248.733 344.878 249.541 344.943L347.607 233.872L427.935 310.898C424.78 309.213 419.704 306.06 409.649 301.899C402.298 299.009 387.442 292.577 364.905 291.724C342.824 290.865 323.801 297.168 314.37 301.638ZM283.307 324.521C280.127 325.657 270.466 330.534 276.754 323.733C278.205 322.199 282.748 319.382 285.562 318.591C288.529 317.704 288.044 319.559 283.307 324.521ZM236.461 342.324C238.178 350.789 218.29 320.558 217.675 319.156C217.59 318.5 217.611 318.01 217.693 317.676C215.981 317.378 211.257 311.872 213.002 309.364C214.196 311.186 218.139 315.671 218.258 316.356C218.329 316.669 218.36 316.919 218.349 317.118C222.172 317.567 236.265 340.631 236.461 342.324ZM263.236 389.232C261.591 389.524 260.951 389.198 260.933 388.657C259.608 385.232 263.344 382.13 263.81 382.466C265.294 383.541 266.218 384.383 266.734 385.032C267.53 385.622 264.364 386.78 263.268 387.198C263.035 387.205 262.887 387.225 262.873 387.276C262.868 387.318 262.879 387.368 262.904 387.425C262.981 387.897 266.128 387.786 263.232 389.226C263.234 389.228 263.235 389.23 263.236 389.232ZM242.217 353.11C241.905 352.855 237.832 346.558 237.776 346.243C236.765 339.403 248.349 357.301 242.217 353.11ZM1119.2 230.406C1110.55 229.245 1119.21 226.002 1124.93 227.589C1125.39 227.755 1126.73 231.553 1119.2 230.406ZM277.317 329.761C277.193 330.138 275.27 333.016 274.743 334.232C274.394 334.939 274.203 335.442 274.207 335.592C274.215 335.735 274.375 335.587 274.614 335.198C275.663 333.518 277.465 328.612 274.883 328.005C274.805 328.862 271.286 334.244 271.363 333.862C271.437 333.676 272.547 332.05 274.776 329.773C275.793 328.756 276.81 327.926 277.316 327.83C277.842 327.715 277.792 328.382 277.317 329.761ZM458.466 143.318C448.677 146.414 457.837 138.279 463.822 138.554C465.985 138.652 460.911 142.55 458.466 143.318ZM1285.66 289.608C1291.64 290.461 1285.69 297.202 1283.53 292.038C1283.44 291.835 1285.42 289.576 1285.66 289.608ZM386.728 176.901C412.787 155.864 412.046 172.434 378.205 192.991C378.687 191.678 379.187 190.361 379.705 189.041C345.171 217.274 375.723 190.052 384.889 182.379C388.189 179.427 383.671 179.652 386.692 176.905C386.704 176.904 386.716 176.903 386.728 176.901ZM510.634 134.146C542.957 143.623 481.908 138.559 464.136 147.386C480.108 138.167 503.382 135.148 471.341 136.789C517.194 127.172 498.604 136.035 500.508 135.615C502.65 135.762 509.211 133.742 510.634 134.146ZM425.522 156.776C423.939 157.787 410.106 162.68 406.049 165.744C409.929 158.483 436.201 149.164 425.522 156.776ZM260.993 385.856C259.75 388.52 259.387 390.752 261.708 391.063C262.096 389.53 261.456 387.574 260.993 385.856ZM1350.45 104.923C1352.94 102.245 1358.42 97.3473 1354.64 97.1082C1354.28 97.1294 1349.13 103.817 1350.45 104.923ZM304.008 281.818C304.527 281.259 318.841 258.023 311.194 264.434C308.544 266.594 297.082 287.573 304.008 281.818ZM251.22 350.382C251.602 349.869 252.481 348.117 252.734 347.018L347.833 239.309L425.73 314.004C419.654 309.438 413.637 306.143 413.401 305.77C412.409 304.427 419.59 307.461 426.795 312.504L347.723 236.683L251.191 346.016C250.413 346.865 250.108 349.274 251.22 350.382ZM1364.5 92.6434C1365.04 92.4661 1371.74 83.5361 1369.87 83.5776C1366.33 83.6628 1362.64 93.2478 1364.5 92.6434ZM1088.64 237.937C1086.89 238.19 1084.28 235.266 1083.71 235.292C1082.35 234.915 1051.23 241.563 1062.47 235.44C1064.21 233.422 1110.65 230.719 1116.98 232.457C1119.14 236.737 1099.4 232.487 1094.49 233.458C1093.63 233.602 1093.31 237.231 1088.65 237.917C1088.65 237.924 1088.65 237.93 1088.64 237.937ZM265.185 392.795C264.204 393.764 263.235 394.438 262.342 393.933C261.474 393.465 260.877 391.942 262.293 391.041C263.757 392.441 264.887 393.092 265.185 392.795ZM264.202 392.488C263.247 392.948 263.066 393.652 263.092 394.083C263.132 394.526 263.269 394.595 263.578 394.293C264.253 393.654 264.607 393.288 264.621 392.968C264.649 392.66 264.341 392.419 264.202 392.488ZM283.872 341.526C283.669 341.211 282.548 340.787 281.518 340.188C280.478 339.604 279.621 338.711 279.221 338.608C278.968 338.547 279.119 338.792 279.357 338.708C279.58 338.649 279.868 338.283 279.452 337.741C279.318 337.573 278.203 337.408 277.229 337.133C276.244 336.877 275.444 336.442 275.545 336.437C275.851 336.364 278.198 338.227 278.439 337.896C278.964 337.243 279.914 334.513 284.766 328.571C287.434 325.404 291.937 320.655 299.02 315.484C306.182 310.216 319.786 302.282 337.536 298.502C340.744 297.778 329.982 300.711 326.124 302.742C324.117 303.705 323.457 304.217 326.217 303.466C329.199 302.843 334.636 300.388 350.506 298.584C355.903 296.486 401.345 297.286 424.567 315.641L347.952 242.175L254.418 348.113C253.894 348.52 253.422 349.054 253.081 349.762C256.973 361.297 245.633 360.564 242.059 369.842C242.974 370.253 249.631 366.249 249.972 365.912C253.584 362.903 258.135 357.604 261.545 352.744L348.456 254.307L419.647 322.571C407.553 314.141 388.22 304.197 360.347 304.219C333.101 304.64 315.273 314.337 305.113 321.009C287.259 333.879 286.736 337.989 284.672 340.035C283.986 340.99 283.579 340.702 283.08 340.5C282.609 340.263 282.162 339.972 282.007 340.135C281.899 340.249 282.696 340.744 283.311 341.206C283.94 341.643 284.337 342.132 283.872 341.526ZM1350.83 107.76C1354.87 108.847 1356.91 102.61 1359.55 99.733C1356.03 98.6003 1353.91 105.364 1350.83 107.76ZM220.41 386.914C220.331 386.868 220.383 387.119 220.489 387.207C220.587 387.299 220.714 387.234 220.467 386.717C220.144 386.043 219.716 385.577 219.661 385.491C219.593 385.413 219.89 385.729 220.41 386.914ZM942.801 330.333C942.93 330.325 944.213 328.721 944.196 328.59C943.451 324.989 939.273 330.194 942.801 330.333ZM910.687 333.443C907.967 334.282 905.631 335.753 904.336 332.796C906.072 333.08 910.684 331.281 910.687 333.443ZM840.679 312.813C839.043 316.573 833.652 310.122 832.58 308.962C834.054 307.804 841.88 310.161 840.679 312.813ZM254.238 396.605C256.627 397.774 252.618 402.53 255.044 400.844C255.334 400.493 263.864 390.874 258.806 393.174C257.898 393.624 257.905 397.17 254.238 396.605ZM373.387 197.054C372.854 201.087 365.527 206.917 361.186 211.168C360.616 208.805 369.973 200.264 373.387 197.054ZM1379.71 79.0835C1384.58 79.1228 1391.49 66.388 1387.33 67.5055C1386.76 67.6831 1381.09 77.6387 1379.71 79.0835ZM1217.15 258.658C1207.31 257.545 1224.82 266.292 1231.06 266.394C1228.75 265.357 1217.92 258.721 1217.15 258.658ZM862.107 327.093C861.901 327.14 858.399 325.088 858.293 324.86C856.757 320.635 866.531 326.346 862.107 327.093ZM935.774 333.868C935.387 336.547 925.658 336.587 922.93 334.521C924.706 330.677 936.782 330.547 935.774 333.868ZM239.387 389.788C242.565 390.366 245.761 390.41 248.814 390.369C249.1 388.072 239.821 388.092 239.387 389.788ZM848.391 320.195C848.195 320.065 848.112 319.75 847.929 319.618C848.089 319.809 848.239 320.009 848.391 320.195ZM238.21 380.382C240.3 379.486 237.331 377.097 237.158 377.109C235.196 377.333 235.877 381.338 238.21 380.382ZM1358.01 107.884C1361.5 109.01 1363.67 102.245 1366.72 99.8395C1363.94 98.971 1359.68 105.302 1358.01 107.884ZM543.686 141.382C552.722 145.455 514.574 147.793 505.865 147.122C504.868 144.186 542.788 140.062 543.686 141.382ZM1239.78 275.674C1239.05 278.263 1250.9 281.374 1249.36 279.038C1248.43 277.531 1240.31 274.047 1239.78 275.674ZM485.143 148.393C481.48 149.846 472.113 149.347 474.841 147.062C478.44 144.074 486.128 147.963 485.143 148.393ZM295.171 325.17C295.801 324.823 298.646 313.135 294.048 316.189C290.816 318.385 294.055 320.533 293.717 321.225C293.219 322.203 281.55 334.761 295.171 325.17ZM700.208 203.97C695.564 202.099 690.404 197.344 685.453 194.38C688.359 194.178 699.872 201.057 700.208 203.97ZM1193 255.28C1195.1 256.387 1234.84 274.902 1213.45 261.647C1212.56 260.745 1189.27 250.319 1193 255.28ZM254.238 396.605C253.934 396.463 253.478 396.352 252.893 396.339C253.399 396.491 253.878 396.553 254.238 396.605ZM223.101 392.951C223.474 393.848 223.778 394.388 224.075 394.515C224.361 394.647 224.653 394.35 224.58 393.8C224.064 392.73 223.556 392.523 223.305 392.543C223.044 392.569 223.048 392.825 223.101 392.951ZM683.657 196.456C680.258 195.657 675.767 191.579 672.212 189.686C673.696 188.418 683.404 194.103 683.657 196.456ZM822.91 312.557C820.273 309.498 815.996 307.092 814.654 308.847C814.785 308.517 814.837 308.105 814.788 307.619C814.726 307.133 810.67 305.501 809.566 303.754C803.19 294.073 846.007 325.537 817.008 313.457C818.985 313.173 820.953 312.873 822.91 312.557ZM946.954 336.058C947.949 337.14 948.969 336.596 949.464 335.722C949.959 334.849 949.936 333.659 949.445 333.287C948.909 332.756 945.011 333.873 946.954 336.058ZM891.666 347.294C891.97 347.849 894.952 346.362 895.102 344.937C893.978 343.33 890.618 344.85 891.666 347.294ZM954.399 336.429C954.899 336.629 953.006 332.719 952.883 332.57C952.106 331.198 952.865 334.499 954.399 336.429ZM243.769 404.609C242.393 405.359 239.176 401.343 238.42 398.399C238.15 398.92 237.53 399.554 236.574 400.324C236.576 400.324 236.579 400.325 236.582 400.325C236.285 400.58 233.724 400.619 231.369 400.966C228.956 401.291 227.245 401.829 226.788 401.853C226.276 401.898 226.57 401.458 226.296 400.873C226.181 400.575 225.931 400.246 225.766 399.783C225.633 399.319 225.512 398.691 226.608 397.716C226.934 397.47 226.882 400.077 228.347 399.351C228.454 399.301 228.17 397.218 228.571 397.057C229.008 396.884 230.615 396.267 232.858 396.108C235.057 395.929 237.681 396.317 238.379 397.283C238.449 396.9 238.61 396.549 238.898 396.249C240.198 394.904 242.244 396.844 243.262 399.229C244.342 401.621 244.346 404.314 243.769 404.609ZM885.105 346.278C885.655 347.23 888.024 347.021 888.603 345.245C887.843 344.175 883.91 344.098 885.105 346.278ZM1191.79 262.917C1196.26 266.037 1209.12 268.3 1206.14 265.43C1204.43 263.543 1186.7 259.188 1191.79 262.917ZM897.825 346.08C883.036 345.198 894.371 346.572 892.363 349.477C894.245 348.351 895.963 347.228 897.825 346.08ZM241.226 382.309C242.544 385.491 235.886 385.058 236.306 380.407C236.442 378.934 240.476 380.529 241.226 382.309ZM126.44 256.043C127.405 262.375 111.078 248.079 119.943 250.047C120.508 250.247 126.285 255.675 126.44 256.043ZM211.904 346.405C215.883 346.341 217.096 347.296 220.368 353.192C213.837 345.753 216.889 354.766 211.904 346.405ZM814.489 309.156C814.543 309.034 814.581 308.943 814.654 308.847C814.609 308.96 814.554 309.06 814.489 309.156ZM954.316 335.575C955.768 337.89 954.731 338.503 953.207 336.18C953.087 335.933 953.059 333.972 954.316 335.575ZM238.42 398.399C238.661 397.939 238.625 397.612 238.379 397.283C238.314 397.644 238.339 397.996 238.42 398.399ZM950.284 339.693C949.679 337.763 945.502 338.353 945.22 338.666C943.495 342.913 949.002 340.356 950.284 339.693ZM1269.98 307.5C1270.58 307.646 1270.47 301.206 1267.32 301.605C1264.91 301.932 1267.8 307.006 1269.98 307.5ZM196.846 329.109C194.412 326.074 191.042 322.025 192.294 319.623C193.659 321.823 198.323 327.993 196.846 329.109ZM130.814 263.503C137.389 264.685 147.441 272.963 152.768 278.527C150.408 281.443 136.203 266.152 130.814 263.503ZM247.542 404.625C247.467 404.716 244.04 404.529 245.329 402.274C246.337 400.614 247.47 401.033 247.903 401.92C248.365 402.814 248.216 404.173 247.542 404.625ZM1256.35 295.239C1251.67 294.404 1257.32 304.451 1263.15 303.238C1266.26 302.66 1257.28 295.431 1256.35 295.239ZM953.478 341.312C952.557 341.249 951.967 340.305 952.048 339.426C952.141 338.532 952.805 337.884 953.895 338.723C953.63 339.269 954.114 341.369 953.478 341.312ZM895.429 354.89C895.749 355.502 896.039 355.985 896.298 356.356L883.181 356.336C892.618 360.091 885.707 348.39 883.758 349.689C883.664 349.752 883.292 350.286 882.829 350.997L896.667 351.018C896.188 352.489 895.36 354.757 895.429 354.89ZM1417.47 55.593C1420.71 50.3225 1402.73 64.4176 1403.3 68.7585C1403.44 71.0237 1415.29 58.4973 1417.47 55.593ZM767.594 274.528C768.003 274.859 768.413 275.187 768.818 275.516C768.441 275.353 768.029 275.044 767.594 274.528ZM977.292 320.246C965.351 328.321 963.762 330.797 963.426 332.792C963.259 334.67 965.187 335.565 964.867 336.117C963.413 338.597 958.622 341.403 958.198 343.214C958.203 340.608 958.76 336.628 961.048 329.806C960.212 330.902 957.953 334.286 956.107 336.85C954.199 339.528 952.673 341.271 951.865 341.765C951.048 342.282 950.908 341.761 951.076 341.29C951.237 340.819 951.644 340.443 952.009 340.705C953.069 341.424 953.09 342.095 953.004 342.465C952.904 342.85 952.708 342.893 952.804 342.951C953.045 343.169 959.024 346.999 959.327 347.024C959.594 346.961 959.866 347.026 962.864 341.921C965.42 337.419 973.241 324.275 977.292 320.246ZM905.637 351.723C903.708 351.091 902.871 348.349 902.075 349.11C901.801 349.37 902.038 352.044 901.074 352.841C902.634 352.473 904.154 352.1 905.637 351.723ZM1021.98 268.5C1027.87 267.667 1019.24 271.591 1008.54 278.597C998.061 285.279 987.906 294.722 987.331 295.103C983.56 297.464 987.898 290.85 996.435 283.391C1004.82 275.861 1017.28 269.15 1021.98 268.5ZM952.908 341.229C953.03 341.284 953.975 341.228 954.725 340.949C955.462 340.678 955.86 340.257 955.449 339.446C954.627 338.372 950.211 339.742 952.908 341.229ZM899.804 353.153C896.782 353.147 891.431 350.887 892.316 354.865C892.321 354.865 892.325 354.864 892.329 354.864C894.904 354.306 897.124 353.762 899.804 353.153ZM1238.67 294.489C1242.7 304.347 1243.58 295.352 1237.82 289.649C1234.35 291 1237.98 292.867 1238.67 294.489ZM1258.06 312.21C1259.58 314.525 1276.58 324.596 1275.9 320.018C1275.91 318.543 1264.65 314.57 1264.25 314.038C1263.73 313.273 1269.08 312.316 1263.24 309.315C1262.86 310.593 1257.67 311.489 1258.06 312.21ZM1242.58 301.6C1246.9 309.97 1253.22 303.33 1248.03 300.061C1246.02 298.795 1241.94 300.387 1242.58 301.6ZM1211.31 283.894C1214.06 286.097 1221.26 291.049 1227.81 291.211C1221 287.239 1213.89 283.412 1206.17 279.729C1204.58 280.887 1208.97 281.956 1211.33 283.904C1211.32 283.901 1211.32 283.898 1211.31 283.894ZM47.9843 249.958C55.5859 252.693 51.0151 252.444 42.4099 251.872C34.4567 251.028 17.6157 252.435 15.4146 252.839C10.3337 252.774 18.9947 249.757 27.4469 248.906C36.2623 247.938 44.1279 248.748 47.9843 249.958ZM1523.39 89.2934C1525.34 90.1195 1526.67 93.3173 1530.4 91.4198C1526.47 89.0639 1522.25 86.9625 1517.53 85.2698C1515.34 91.4311 1521.33 88.3229 1523.39 89.2934ZM1537.25 109.627C1536.81 109.764 1538.64 118.505 1533.6 112.548C1529.56 108.132 1551.28 106.027 1553.97 111.418C1549.59 112.044 1541.1 108.604 1537.25 109.627ZM1556.93 153.219C1556.76 153.868 1551.21 152.738 1550.83 152.129C1548.53 148.538 1557.43 149.271 1556.93 153.219ZM1541.37 146.488C1543.14 148.559 1538.33 148.727 1537.23 147.688C1537.23 146.021 1541.02 146.132 1541.37 146.488ZM48.2532 389.043C46.622 395.497 57.4315 388.065 51.91 386.573C51.6454 386.501 48.3398 388.732 48.2532 389.043ZM1548.77 159.445C1547.14 157.046 1552.47 157.813 1553.66 159.431C1553.13 160.944 1549 159.763 1548.77 159.445ZM40.5052 401.056C40.5349 406.835 49.2159 395.38 49.214 394.588C49.0851 391.32 40.0108 390.981 38.1642 391.357C47.3822 396.173 40.4638 398.393 40.5052 401.056ZM60.3987 408.586C64.4012 410.623 59.1195 400.709 54.9257 402.249C56.4329 403.466 59.3054 408.043 60.3987 408.586ZM73.7834 431.23C74.8277 433.336 78.1574 439.656 80.651 439.236C78.8002 437.44 76.1948 430.51 73.7834 431.23ZM71.7409 439.562C71.5253 444.294 79.1371 439.553 74.4705 437.853C74.2863 437.783 71.7921 439.351 71.7409 439.562ZM81.4189 458.041C79.9074 462.049 88.6145 459.415 86.5026 456.001C85.863 455.003 81.6032 457.598 81.4189 458.041ZM33.5785 415.629C34.4748 418.581 41.4461 416.735 37.5699 412.045C39.7263 412.787 41.9968 413.691 44.2184 414.596C40.7492 406.231 35.2736 413.038 33.9439 411.293C32.071 408.91 36.9032 403.753 38.8626 402.511C34.0484 403.916 26.0968 397.577 22.6338 396.574C24.3665 399.714 28.4014 406.791 31.4581 411.144C32.3649 412.401 34.6871 411.899 35.5278 412.987C36.849 414.731 33.5293 415.441 33.5706 415.622C33.5732 415.624 33.5759 415.627 33.5785 415.629ZM96.8373 481.168C97.3746 489.491 102.21 480.9 98.6825 478.282C98.4881 478.2 96.8232 480.963 96.8373 481.168ZM1544.32 186.124C1542.58 183.36 1543.07 181.319 1542.35 180.233C1541.79 179.23 1539.19 178.862 1535.27 181.704C1539.2 177.345 1536.26 178.109 1537.29 176.216C1538.11 174.704 1539.97 176.669 1539.61 173.102C1539.96 176.748 1549.08 179.447 1549.55 180.472C1549.54 180.47 1549.54 180.468 1549.54 180.466C1549.65 180.912 1545.39 187.883 1544.32 186.124ZM56.0475 445.407C49.13 453.64 62.8749 444.043 58.6552 452.878C72.3216 449.756 48.7436 440.185 55.237 431.568C69.5472 450.673 53.2421 412.767 51.6725 435.745C47.4139 421.906 47.3558 433.785 44.4933 433.594C41.4581 433.399 38.4221 426.637 35.8284 429.633C35.8309 429.636 35.8335 429.639 35.836 429.641C38.8945 432.48 42.0556 435.596 45.1433 438.781C48.6618 429.883 52.8852 438.687 49.5211 445.538C51.6884 445.473 53.8888 445.46 56.0475 445.407ZM45.1218 420.592C45.2477 420.94 52.749 427.448 53.6178 425.918C53.5063 424.018 43.1404 414.873 45.1218 420.592ZM18.7513 400.285C19.8357 400.904 21.5131 404.022 24.4483 402.235C22.521 400.777 20.8975 397.815 18.7513 400.285ZM190.484 571.3C196.667 571.765 190.77 569.278 185.071 567.055C179.293 564.833 173.203 562.652 177.4 566.189C177.777 566.661 189.828 571.374 190.484 571.3ZM63.9411 452.992C64.3564 458.916 71.149 450.872 66.7799 449.521C66.5271 449.448 63.922 452.723 63.9411 452.992ZM1540.06 185.686C1539.52 186.823 1537.9 186.404 1536.62 185.889C1535.31 185.356 1534.42 184.729 1534.18 184.692C1534.52 183.571 1535.79 182.888 1537.42 183.114C1539 183.315 1540.67 184.379 1540.06 185.686ZM13.556 408.143C11.268 412.05 12.0306 412.02 14.0026 411.575C15.9214 411.085 18.7641 410.004 18.9318 410.27C19.2895 410.822 16.1775 413.432 16.2341 413.605C16.1848 413.749 22.1442 418.111 22.7548 418.362C23.1244 418.4 25.5809 413.185 28.0782 413.044C25.7125 413.047 21.8399 410.175 19.1724 408.272C16.3675 406.249 15.3334 405.376 15.1428 405.609C14.9533 405.785 14.4361 407.302 13.9439 408.289C13.6989 408.783 13.4415 409.132 13.2795 409.141C13.137 409.157 13.0202 408.809 13.555 408.143C13.5553 408.143 13.5556 408.143 13.556 408.143ZM19.5055 412.214C19.4833 409.257 23.7268 412.169 24.3285 413.85C25.4569 417.301 19.3658 412.367 19.5055 412.214ZM28.7379 423.108C28.8903 423.932 33.5002 429.249 35.8595 428.017C35.7885 423.027 28.3159 421.004 28.7379 423.108ZM84.9303 495.475C85.3541 495.976 85.7973 496.839 86.2632 497.817C88.4501 501.96 91.2023 507.089 92.8104 506.523C91.3093 504.694 89.1698 500.279 87.2911 497.175C86.5475 495.933 85.7639 495.123 84.9303 495.475ZM1542.01 202.114C1539.67 204.759 1546.61 203.593 1548.42 201.567C1547.82 200.292 1542.11 202.031 1542.01 202.114ZM47.1587 466.656C47.377 467.792 64.0612 488.456 66.9989 491.307C66.4489 487.049 51.2626 465.284 49.885 465.133C49.4781 465.007 47.1478 466.461 47.1587 466.656ZM14.131 430.826C10.7203 432.245 12.6842 428.678 12.5402 428.487C11.3941 426.817 8.47925 425.516 10.9846 423.401C12.1141 425.786 21.0296 428.128 14.131 430.826ZM73.2434 505.201C73.3893 505.379 73.5281 505.543 73.6598 505.694C77.3588 510.509 77.0238 508.317 75.3967 504.608C74.4229 501.481 71.8763 497.008 70.9348 499.189C70.8353 499.416 72.6026 504.412 73.2434 505.201ZM44.6599 464.962C41.3741 464.758 27.8372 444.657 25.4785 442.507C31.3137 441.513 30.3402 446.066 33.4346 449.291C34.2934 450.184 35.6561 448.601 35.7449 448.7C37.2349 450.315 34.3496 450.594 35.1965 451.658C35.6413 452.024 49.3402 464.72 44.6599 464.962ZM11.9264 431.954C10.9496 432.36 8.39001 431.034 6.51875 430.064C4.60693 429.051 3.60435 428.49 3.70101 428.246C4.28055 426.378 5.35423 426.162 7.34935 427.459C9.26091 428.676 11.8613 431.442 11.9264 431.954ZM42.5485 469.483C36.3368 470.748 31.8603 458.847 39.2928 463.639C40.0309 464.156 40.0865 468.317 42.5485 469.483ZM68.0491 507.258C68.0736 507.372 68.3283 507.955 68.7274 508.776C71.2619 513.542 76.9987 522.49 78.3111 521.851C77.7757 520.446 73.0772 512.941 69.9533 508.01C68.566 505.904 67.5077 504.862 68.0491 507.258ZM60.1173 506.337C60.2811 506.515 62.0452 502.697 64.0914 506.751C64.2294 507.035 62.2591 508.88 63.8773 511.807C64.5899 513.024 65.5571 514.396 66.8643 515.92C68.3149 517.616 72.3896 518.957 72.3872 518.658C72.1401 515.731 70.4918 512.369 68.3008 509.043C64.1386 502.989 54.0349 499.821 60.1173 506.337ZM9.65693 434.25C8.9348 435.852 4.72988 438.782 5.56409 436.184C5.91529 435.057 8.50276 433.315 9.65693 434.25ZM104.03 555.642C98.3537 552.036 102.505 557.772 108.955 564.197C115.219 570.579 125.217 578.017 126.309 578.262C126.261 577.076 120.345 571.811 114.798 566.355C109.528 561.206 104.607 556.007 104.03 555.642ZM1559.14 220.341C1559.13 220.344 1559.13 220.346 1559.12 220.349C1564.5 216.719 1559.71 216.408 1559.97 216.194C1569.07 206.245 1569.17 212.246 1571.43 211.535C1575.98 209.411 1570.68 205.261 1577.89 201.315C1566.2 207.923 1575.37 200.63 1573.61 198.763C1570.12 195.066 1568.82 198.664 1566.86 203.318C1565 207.996 1561.69 213.947 1558.54 214.411C1557.77 214.56 1561.18 208.792 1558.95 209.072C1555.55 209.546 1551.3 214.985 1549.32 218.92C1547.42 222.666 1548.42 226.653 1559.14 220.341ZM4.67358 436.01C3.30508 436.785 1.59224 435.431 1.01967 434.223C0.428163 432.991 0.848543 431.707 1.83824 430.899C1.96988 430.754 3.1371 430.935 4.44783 432.07C5.70435 433.157 6.69814 434.901 4.67358 436.01ZM684.843 489.337C678.722 488.127 687.772 498.232 690.971 497.972C692.53 497.852 687.484 489.859 684.843 489.337ZM763.825 548.376C771.231 551.219 783 544.621 773.491 542.296C772.501 542.069 763.647 546.675 763.825 548.376ZM526.98 376.911C526.488 380.811 525.918 373.747 526.391 373.794C526.575 373.804 526.996 376.787 526.98 376.911ZM619.715 443.199C620.078 443.863 626.18 448.604 627.065 447.208C625.503 444.581 617.552 439.016 619.715 443.199ZM527.436 377.862C526.75 376.671 526.637 371.537 528.377 376.265C527.916 375.953 527.531 377.981 527.436 377.862ZM35.5706 486.38C39.22 486.458 42.3299 492.397 44.8266 495.192C41.9661 497.643 37.6376 488.028 35.5706 486.38ZM737.106 530.095C744.442 531.09 732.545 522.072 732.04 525.767C732.097 526.028 736.798 530.065 737.106 530.095ZM495.613 441.849C495.888 436.503 485.892 448.986 491.396 447.013C491.663 446.876 495.656 442.052 495.613 441.849ZM452.864 485.979C453.881 484.935 455.673 482.525 457.325 479.97L284.48 512.956C314.905 541.164 396.139 537.758 344.651 534.483C337.772 534.242 304.502 525.763 285.712 511.22L455.54 478.81C453.729 481.964 452.096 485.259 452.864 485.979ZM1573.49 213.347C1574.53 217.743 1582.6 208.969 1583.03 206.985C1583.13 206.599 1572.08 208.195 1573.49 213.347ZM526.432 377.81C526.884 377.383 528.399 378.661 529.315 376.813C528.154 376.931 526.899 373.782 526.432 377.81ZM710.369 514.412C713.028 521.069 722.026 525.925 722.66 519.913C712.996 514.523 721.182 524.879 710.369 514.412ZM532.772 381.133C532.27 381.653 530.245 376.758 530.244 376.499C529.965 374.114 532.575 379.02 532.772 381.133ZM582.708 408.836C582.637 408.942 582.588 409.051 582.559 409.162L564.296 392.635C564.819 395.906 571.204 401.202 571.407 399.422C571.455 398.834 567.387 393.092 564.838 392.145L582.992 408.574C582.884 408.629 582.788 408.715 582.708 408.836ZM133.927 597.922C140.58 604.462 115.747 591.499 112.059 584.912C111.727 582.441 116.477 585.654 121.804 589.372C127.339 593.287 133.502 597.541 133.927 597.922ZM533.133 381.47C535.696 383.584 536.334 380.045 533.48 379.071C532.775 378.803 532.312 380.701 533.133 381.47ZM489.57 466.705C491.315 459.6 485.697 467.251 474.031 482.068C466.058 496.066 420.705 530.108 449.778 511.123C450.643 510.532 456.774 505.698 462.768 499.765C467.941 494.754 473.28 488.765 477.503 483.47C484.962 474.212 489.487 467.094 489.57 466.705ZM441.586 511.023C443.148 509.707 451.475 517.419 442.745 521.363C441.616 521.872 442.544 515.977 441.443 516.26C440.865 516.516 428.037 529.41 427.593 530.163C427.218 531.042 430.631 532.613 430.321 533.577C429.97 534.703 420.018 541.026 415.748 545.323C407.726 553.457 408.726 556.462 408.072 557.147C406.052 559.117 401.158 560.833 396.816 564.716C376.386 584.193 332.71 616.303 295.796 620.147C325.734 613.18 345.949 598.27 363.973 584.74C362.664 593.719 386.951 561.448 373.352 580.9C384.253 573.768 438.251 516.104 441.572 511.04C441.577 511.034 441.581 511.029 441.586 511.023ZM792.077 563.513C785.709 565.409 811.649 573.514 815.448 569.727C811.91 568.204 792.76 563.428 792.077 563.513ZM689.174 520.717C687.097 520.119 681.144 525.253 674.37 515.948C674.361 515.942 674.353 515.937 674.345 515.931C672.371 513.203 676.386 513.772 676.279 512.904C676.226 512.557 670.399 503.894 677.369 508.061C688.074 514.355 675.142 513.324 680.574 517.15C681.214 517.633 694.086 521.314 693.951 520.129C693.942 520.002 690.282 518.627 689.956 517.962C688.739 515.483 691.007 514.177 690.788 513.899C689.982 513.108 671.443 505.15 671.282 500.643C670.998 499.269 699.088 515.423 700.021 516.47C700.501 517.217 696.696 522.498 697.065 523.495C697.231 524.023 709.955 529.11 711.196 530.507C711.547 530.921 711.787 531.283 711.956 531.564C711.201 528.791 721.791 535.223 720.368 536.985C719.716 537.657 712.561 532.854 712.4 532.556C712.319 532.431 712.266 532.293 712.205 532.183C712.301 535.277 688.233 519.963 691.478 526.296C683.525 523.486 695.364 522.457 689.174 520.717ZM655.394 501.843C656.452 501.78 657.511 501.715 658.571 501.65C646.448 494.754 636.175 482.489 624.393 472.649C621.364 470.106 622.143 476.229 618.933 472.025C616.385 468.671 615.541 462.814 617.788 463.61C618.291 463.768 622.965 471.078 626.391 473.577C636.349 480.817 636.305 476.079 636.9 476.456C637.606 476.906 642 483.682 645.526 486.289C654.202 492.67 659.387 493.923 669.919 505.075C661.51 501.912 662.255 508.825 655.394 501.843ZM527.317 408.81C529.156 410.128 524.943 413.635 524.245 415.674C522.417 414.278 526.749 410.48 527.317 408.81ZM1444.41 444.893C1443.46 442.46 1440.09 447.339 1436.92 453.084C1433.63 459.125 1430.91 465.12 1434.5 461.74C1435.29 460.99 1437.59 457.434 1439.79 453.579C1441.9 449.923 1443.63 446.626 1444.41 444.893ZM1209.77 547.818C1206.78 547.112 1210.41 549.729 1216.36 552.385C1222.11 555.01 1229.97 557.241 1230.34 555.839C1230.04 555.096 1209.91 548.021 1209.77 547.818ZM556.908 411.819C556.586 411.739 553.627 408.89 553.64 408.685C553.435 403.87 563.5 413.03 556.908 411.819ZM1116.82 497.569C1118.91 497.337 1117.76 495.691 1116.43 494.793C1115.09 493.887 1113.72 493.801 1114.1 495.71C1114.08 495.853 1116.57 497.552 1116.82 497.569ZM1108.69 494.507C1108.87 494.42 1109.74 496.048 1110.24 495.043C1110.93 493.343 1109.71 491.539 1108.69 494.507ZM538.096 394.08C539.283 398.137 542.184 393.499 543.306 393.402C541.65 389.584 539.892 394.017 538.096 394.08ZM523.065 399.562C521.853 400.153 523.138 400.467 523.981 400.168C524.872 399.897 525.439 399.19 525.224 398.508C524.954 397.239 521.71 395.424 523.861 397.664C523.22 400.264 523.405 399.43 523.065 399.562ZM535.027 397.779C533.626 395.398 531.905 396.613 530.64 397.024C531.157 398.844 533.821 397.637 535.027 397.779ZM1461.47 417.136C1463.38 422.373 1452.25 439.474 1452.13 435.854C1452.68 434.071 1460.27 415.234 1461.47 417.136ZM552.839 413.456C551.151 417.152 544.967 411.432 545.011 410.465C544.698 406.061 551.606 413.667 552.839 413.456ZM547.513 393.704C549.634 396.113 547.236 396.486 546.214 397.827C544.479 395.572 546.981 394.224 547.513 393.704ZM549.888 394.544C549.944 394.577 550.132 394.378 550.239 394.193C550.35 394.005 550.381 393.835 550.341 393.773C549.446 392.492 548.961 392.155 548.793 392.472C548.633 392.784 548.693 393.809 549.888 394.544ZM1561.02 252.569C1561.36 252.646 1568.59 249.597 1568.77 249.298C1571.36 246.426 1567.34 247.699 1563.74 249.192C1560.22 250.667 1556.88 252.521 1561.02 252.569Z" fill="url(#paint0_linear_2152_380)"/>
<defs>
<linearGradient id="paint0_linear_2152_380" x1="98.3039" y1="476.278" x2="1590.91" y2="180.448" gradientUnits="userSpaceOnUse">
<stop offset="0.0144231" stop-color="white"/>
<stop offset="0.25" stop-color="#A0F2FF"/>
<stop offset="0.662048" stop-color="#AF7DFF"/>
<stop offset="0.966346" stop-color="white"/>
</linearGradient>
</defs>
</svg>
