<svg width="416" height="86" viewBox="0 0 416 86" fill="none" xmlns="http://www.w3.org/2000/svg">
<g filter="url(#filter0_d_2152_312)">
<rect x="10" y="6" width="396" height="65.6" rx="32.8" fill="#464646" fill-opacity="0.7"/>
<path d="M43.4817 48.3398H65.4817V26.3398H43.4817V48.3398ZM81.0711 31.8037C81.0603 34.6719 83.6062 37.7334 88.032 38.4854L86.8289 40.7627C83.4129 40.0859 80.8885 38.1631 79.6209 35.6602C78.3318 38.1416 75.7967 40.0752 72.4129 40.7627L71.2312 38.4854C75.5818 37.7119 78.1277 34.6396 78.1492 31.8037V30.3857H81.0711V31.8037ZM70.7801 46.3701V44.1143H88.6765V46.3701H70.7801ZM99.9088 31.8037C99.898 34.6719 102.444 37.7334 106.87 38.4854L105.667 40.7627C102.251 40.0859 99.7261 38.1631 98.4586 35.6602C97.1695 38.1416 94.6343 40.0752 91.2505 40.7627L90.0689 38.4854C94.4195 37.7119 96.9654 34.6396 96.9869 31.8037V30.3857H99.9088V31.8037ZM89.6177 46.3701V44.1143H107.514V46.3701H89.6177ZM126.352 44.3506V46.6064H108.455V44.3506H115.996V41.4072H110.518V34.833H121.582V32.6846H110.496V30.4932H124.289V36.9814H113.268V39.1729H124.741V41.4072H118.725V44.3506H126.352ZM140.996 41.4072C145.271 41.4072 147.957 42.7607 147.978 45.1025C147.957 47.4121 145.271 48.7871 140.996 48.7764C136.753 48.7871 134.024 47.4121 134.035 45.1025C134.024 42.7607 136.753 41.4072 140.996 41.4072ZM132.23 40.1611V37.9482H138.891V34.5322H141.598V37.9482H149.976V40.1611H132.23ZM134.228 32.2549V30.1064H147.871V31.6963C147.882 33.2539 147.882 34.9297 147.312 36.9385L144.627 36.6807C145.067 34.9082 145.121 33.5869 145.142 32.2549H134.228ZM136.764 45.1025C136.753 46.1553 138.3 46.6924 140.996 46.6924C143.692 46.6924 145.25 46.1553 145.25 45.1025C145.25 44.0176 143.692 43.4375 140.996 43.4482C138.3 43.4375 136.753 44.0176 136.764 45.1025ZM168.9 40.5049V42.6533H161.252V48.7764H158.545V42.6533H151.004V40.5049H168.9ZM153.109 38.6143V29.9775H155.816V32.2334H164.023V29.9775H166.773V38.6143H153.109ZM155.816 36.4229H164.023V34.3818H155.816V36.4229ZM185.289 29.2256V36.874H188.167V39.1299H185.289V48.7764H182.581V29.2256H185.289ZM169.755 34.3389V32.1475H174.181V29.5264H176.931V32.1475H181.249V34.3389H169.755ZM170.55 40.0967C170.539 37.3682 172.666 35.4238 175.556 35.4346C178.403 35.4238 180.54 37.3682 180.54 40.0967C180.54 42.8252 178.403 44.748 175.556 44.7588C172.666 44.748 170.539 42.8252 170.55 40.0967ZM173.171 40.0967C173.171 41.6113 174.17 42.5137 175.556 42.5029C176.92 42.5137 177.919 41.6113 177.919 40.0967C177.919 38.5928 176.92 37.6689 175.556 37.6475C174.17 37.6689 173.171 38.5928 173.171 40.0967ZM205.652 29.2256V48.7764H203.073V29.2256H205.652ZM188.464 42.7822C192.417 40.4404 194.157 37.5938 194.533 33.7588H189.538V31.5459H197.251C197.251 33.415 197.047 35.1553 196.574 36.7666H198.927V29.6553H201.484V47.917H198.927V38.9365H195.726C194.609 41.1709 192.793 43.1045 190.011 44.7158L188.464 42.7822ZM222.401 30.8369V40.2256H213.012V30.8369H222.401ZM215.268 48.4326V42.0947H217.997V46.2412H228.653V48.4326H215.268ZM215.719 38.0771H219.694V33.0283H215.719V38.0771ZM225.194 43.4912V29.2256H227.944V34.8545H230.587V37.1104H227.944V43.4912H225.194ZM247.211 38.2705V40.4619H233.376V30.8584H247.061V33.0713H236.083V38.2705H247.211ZM231.27 46.3916V44.1357H249.167V46.3916H231.27ZM265.985 34.5537V36.7021H252.321V29.9131H255.049V34.5537H265.985ZM250.086 40.9561V38.8076H267.983V40.9561H250.086ZM252.149 48.3467V42.5459H254.899V46.1553H266.114V48.3467H252.149ZM281.445 33.6514C281.434 37.2393 283.067 40.8379 286.387 42.2451L284.775 44.4365C282.541 43.4268 280.994 41.4717 280.102 39.0547C279.222 41.6973 277.621 43.8242 275.236 44.9092L273.582 42.6318C276.998 41.1924 278.663 37.4434 278.674 33.6514V30.7295H281.445V33.6514ZM287.439 48.8193V29.2256H290.211V48.8193H287.439ZM302.968 31.8037C302.958 34.6719 305.504 37.7334 309.929 38.4854L308.726 40.7627C305.31 40.0859 302.786 38.1631 301.518 35.6602C300.229 38.1416 297.694 40.0752 294.31 40.7627L293.129 38.4854C297.479 37.7119 300.025 34.6396 300.047 31.8037V30.3857H302.968V31.8037ZM292.677 46.3701V44.1143H310.574V46.3701H292.677ZM319.744 30.3857V32.5986H314.91V34.1455H319.013V36.251H314.91V37.959C317.037 37.9268 318.594 37.8301 320.41 37.54L320.689 39.667C318.444 40.0537 316.575 40.1289 313.621 40.1182H312.289V30.3857H319.744ZM314.974 48.5615V41.665H328.316V48.5615H314.974ZM317.703 46.3701H325.609V43.8135H317.703V46.3701ZM319.851 36.1221V33.9307H321.828V29.5264H324.427V40.7627H321.828V36.1221H319.851ZM325.716 40.8916V29.2256H328.316V40.8916H325.716ZM346.526 30.3213V32.4912H342.638C342.648 34.79 344.045 37.1641 347.128 38.1846L345.774 40.29C343.615 39.6133 342.122 38.1953 341.273 36.4443C340.403 38.3887 338.846 39.957 336.536 40.6982L335.14 38.5283C338.362 37.5078 339.823 34.9189 339.845 32.4912H335.913V30.3213H346.526ZM338.298 43.9209V41.7295H351.726V48.7764H348.997V43.9209H338.298ZM345.968 36.165V33.9307H348.997V29.2256H351.726V40.8701H348.997V36.165H345.968ZM371.917 38.4854V40.6768H354.085V38.4854H358.102V36.1436C356.674 35.5098 355.868 34.543 355.868 33.2861C355.868 30.9229 358.65 29.5156 363.001 29.5049C367.319 29.5156 370.101 30.9229 370.112 33.2861C370.101 34.5645 369.274 35.542 367.813 36.165V38.4854H371.917ZM356.126 45.21C356.126 42.9541 358.693 41.6973 362.979 41.708C367.201 41.6973 369.768 42.9541 369.79 45.21C369.768 47.5195 367.201 48.7549 362.979 48.7549C358.693 48.7549 356.126 47.5195 356.126 45.21ZM358.725 33.2861C358.704 34.3604 360.24 34.9082 363.001 34.8975C365.729 34.9082 367.276 34.3604 367.276 33.2861C367.276 32.1904 365.729 31.6104 363.001 31.6104C360.24 31.6104 358.704 32.1904 358.725 33.2861ZM358.919 45.21C358.908 46.209 360.272 46.7139 362.979 46.7139C365.633 46.7139 367.029 46.209 367.04 45.21C367.029 44.2432 365.633 43.7812 362.979 43.7705C360.272 43.7812 358.908 44.2432 358.919 45.21ZM360.874 38.4854H365.085V36.8418C364.44 36.9277 363.742 36.96 363.001 36.96C362.238 36.96 361.529 36.917 360.874 36.8418V38.4854Z" fill="white"/>
</g>
<defs>
<filter id="filter0_d_2152_312" x="-30" y="-34" width="476" height="145.6" filterUnits="userSpaceOnUse" color-interpolation-filters="sRGB">
<feFlood flood-opacity="0" result="BackgroundImageFix"/>
<feColorMatrix in="SourceAlpha" type="matrix" values="0 0 0 0 0 0 0 0 0 0 0 0 0 0 0 0 0 0 127 0" result="hardAlpha"/>
<feOffset dy="4"/>
<feGaussianBlur stdDeviation="5"/>
<feComposite in2="hardAlpha" operator="out"/>
<feColorMatrix type="matrix" values="0 0 0 0 0 0 0 0 0 0 0 0 0 0 0 0 0 0 0.05 0"/>
<feBlend mode="normal" in2="BackgroundImageFix" result="effect1_dropShadow_2152_312"/>
<feBlend mode="normal" in="SourceGraphic" in2="effect1_dropShadow_2152_312" result="shape"/>
</filter>
</defs>
</svg>
