<svg width="483" height="89" viewBox="0 0 483 89" fill="none" xmlns="http://www.w3.org/2000/svg">
<g filter="url(#filter0_d_2152_315)">
<rect x="10" y="6" width="463" height="68.6" rx="34.3" fill="#9A41FF" fill-opacity="0.7"/>
<path d="M43.1556 50.4798H67.1556V26.4798H43.1556V50.4798ZM90.4434 31.4092V33.3076C90.4317 35.874 90.4786 38.8975 89.4825 43.5029L86.5528 43.1982C86.9044 41.5811 87.127 40.1396 87.2677 38.8389L74.8809 39.542L74.4591 36.9873L87.4434 36.5654C87.502 35.5576 87.502 34.6436 87.5138 33.7998H75.1622V31.4092H90.4434ZM72.9356 48.4951V46.0576H79.8966V40.9014H82.8731V46.0576H92.3888V48.4951H72.9356ZM111.345 29.6279V42.3779H108.345V29.6279H111.345ZM94.7046 41.0654V31.2217H104.9V33.6123H97.6577V38.6748C101.701 38.6631 104.056 38.499 106.658 37.9951L106.916 40.3857C104.033 40.9717 101.419 41.0771 96.5561 41.0654H94.7046ZM96.7436 46.7842C96.7319 44.1357 99.521 42.5771 104.08 42.5889C108.568 42.5771 111.392 44.1357 111.416 46.7842C111.392 49.4209 108.568 50.9795 104.08 50.9795C99.521 50.9795 96.7319 49.4209 96.7436 46.7842ZM99.7436 46.7842C99.7436 48.0264 101.232 48.6592 104.08 48.6592C106.904 48.6592 108.451 48.0264 108.462 46.7842C108.451 45.5068 106.904 44.9326 104.08 44.9326C101.232 44.9326 99.7436 45.5068 99.7436 46.7842ZM132.481 29.6279V50.9561H129.645V40.2451H127.583V49.9248H124.841V29.9795H127.583V37.8545H129.645V29.6279H132.481ZM114.645 46.1279V32.0889H122.591V34.5029H117.645V43.6201C119.708 43.585 121.536 43.4678 123.599 43.1045L123.809 45.542C121.208 46.0342 118.934 46.1162 116.122 46.1279H114.645ZM152.516 29.6279V50.9561H149.539V29.6279H152.516ZM134.68 44.9326C136.309 44.9209 138.172 44.9209 140.117 44.874V43.0693C137.785 42.6475 136.262 41.1943 136.274 39.1904C136.262 36.8115 138.43 35.1826 141.571 35.1826C144.735 35.1826 146.938 36.8115 146.938 39.1904C146.938 41.1826 145.414 42.6357 143.071 43.0693V44.7686C144.864 44.6865 146.657 44.5459 148.367 44.3232L148.578 46.5264C143.903 47.335 138.875 47.3818 135.078 47.3701L134.68 44.9326ZM135.102 34.3389V31.9951H140.117V29.7217H143.094V31.9951H148.063V34.3389H135.102ZM139.11 39.1904C139.098 40.3154 140.117 40.9248 141.571 40.9248C143.071 40.9248 144.078 40.3154 144.078 39.1904C144.078 38.0889 143.071 37.4678 141.571 37.4561C140.117 37.4678 139.098 38.0889 139.11 39.1904ZM159.636 47.0654L157.621 53.7451H155.136L156.308 47.0654H159.636ZM176.104 31.3623V33.0967C176.092 34.8193 176.092 36.8584 175.577 39.5537C176.057 39.4951 176.514 39.4365 176.948 39.3779L177.112 41.6045C175.834 41.8623 174.428 42.0264 173.01 42.1436V49.2686H170.151V42.3076C168.78 42.3545 167.491 42.3779 166.424 42.3779L166.096 39.917C167.866 39.9287 170.315 39.9053 172.717 39.7764C172.87 38.9912 172.987 38.2646 173.069 37.5967L167.221 38.042L166.916 35.6982L173.245 35.417C173.268 34.8428 173.28 34.292 173.291 33.7764H167.432V31.3623H176.104ZM174.58 45.4951V43.2451H178.026V29.9795H180.838V49.9482H178.026V45.4951H174.58ZM182.338 50.9561V29.6279H185.151V50.9561H182.338ZM198.178 32.4404C198.166 35.5693 200.943 38.9092 205.771 39.7295L204.459 42.2139C200.732 41.4756 197.978 39.3779 196.596 36.6475C195.189 39.3545 192.424 41.4639 188.732 42.2139L187.443 39.7295C192.189 38.8857 194.967 35.5342 194.99 32.4404V30.8936H198.178V32.4404ZM186.951 48.3311V45.8701H206.474V48.3311H186.951ZM224.892 40.6436V43.0107H209.798V31.1982H224.728V33.6123H212.845V35.8623H224.236V38.2061H212.845V40.6436H224.892ZM207.501 48.4717V46.0342H227.025V48.4717H207.501ZM232.551 47.0654L230.536 53.7451H228.051L229.223 47.0654H232.551ZM245.058 31.1279C248.316 31.1279 250.671 34.0693 250.683 38.7217C250.671 43.4092 248.316 46.3389 245.058 46.3389C241.788 46.3389 239.421 43.4092 239.433 38.7217C239.421 34.0693 241.788 31.1279 245.058 31.1279ZM242.316 38.7217C242.316 41.8975 243.429 43.6318 245.058 43.6201C246.722 43.6318 247.812 41.8975 247.824 38.7217C247.812 35.5576 246.722 33.8232 245.058 33.8232C243.429 33.8232 242.316 35.5576 242.316 38.7217ZM253.144 50.9561V29.6279H256.144V37.667H259.285V40.1514H256.144V50.9561H253.144ZM276.694 29.6279V37.5967H279.835V40.1045H276.694V50.9561H273.694V29.6279H276.694ZM260.546 46.0107V31.3154H263.522V36.5186H267.952V31.3154H270.928V46.0107H260.546ZM263.522 43.5967H267.952V38.8389H263.522V43.5967ZM291.361 31.3857V33.8232H284.283V37.3389H291.057V39.6826H284.283V43.7139C287.33 43.6787 289.826 43.5498 292.674 43.1045L292.955 45.5186C289.697 46.0107 286.791 46.1045 283.065 46.1045H281.26V31.3857H291.361ZM294.244 50.9561V29.6279H297.244V37.7139H300.385V40.2217H297.244V50.9561H294.244ZM325.806 39.3779V41.8154H306.306V39.3779H325.806ZM308.532 47.0186C308.532 44.5107 311.345 43.0928 316.009 43.1045C320.638 43.0928 323.415 44.5107 323.438 47.0186C323.415 49.5381 320.638 50.9678 316.009 50.9561C311.345 50.9678 308.532 49.5381 308.532 47.0186ZM308.673 37.8779V30.1904H323.462V32.6045H311.649V35.5107H323.579V37.8779H308.673ZM311.579 47.0186C311.567 48.1436 313.056 48.6826 316.009 48.6826C318.903 48.6826 320.427 48.1436 320.438 47.0186C320.427 45.9404 318.903 45.3779 316.009 45.3779C313.056 45.3779 311.567 45.9404 311.579 47.0186ZM351.719 46.0342V48.4717H332.195V46.0342H340.422V42.0967H334.258V30.9873H337.258V34.292H346.562V30.9873H349.539V42.0967H343.398V46.0342H351.719ZM337.258 39.7061H346.562V36.6826H337.258V39.7061ZM360.526 32.9795C360.515 35.5693 362.026 38.0537 365.401 39.0967L363.808 41.417C361.546 40.667 359.964 39.2139 359.05 37.3506C358.124 39.4951 356.472 41.1826 354.034 42.0029L352.417 39.6592C355.98 38.4756 357.503 35.6396 357.526 32.6982V30.7529H360.526V32.9795ZM355.37 46.8311C355.359 44.2412 358.183 42.7061 362.683 42.7061C367.101 42.7061 369.866 44.2412 369.878 46.8311C369.866 49.4443 367.101 50.9678 362.683 50.9561C358.183 50.9678 355.359 49.4443 355.37 46.8311ZM358.37 46.8311C358.347 48.0381 359.882 48.6123 362.683 48.6123C365.448 48.6123 366.925 48.0381 366.925 46.8311C366.925 45.6709 365.448 45.0498 362.683 45.0498C359.882 45.0498 358.347 45.6709 358.37 46.8311ZM366.667 42.2842V29.6279H369.667V34.6201H372.55V37.1045H369.667V42.2842H366.667ZM386.932 34.4561C386.92 38.3701 388.701 42.2959 392.322 43.8311L390.564 46.2217C388.127 45.1201 386.439 42.9873 385.467 40.3506C384.506 43.2334 382.76 45.5537 380.158 46.7373L378.353 44.2529C382.08 42.6826 383.896 38.5928 383.908 34.4561V31.2686H386.932V34.4561ZM393.471 51.0029V29.6279H396.494V51.0029H393.471ZM410.411 32.4404C410.4 35.5693 413.177 38.9092 418.005 39.7295L416.693 42.2139C412.966 41.4756 410.212 39.3779 408.829 36.6475C407.423 39.3545 404.658 41.4639 400.966 42.2139L399.677 39.7295C404.423 38.8857 407.201 35.5342 407.224 32.4404V30.8936H410.411V32.4404ZM399.185 48.3311V45.8701H418.708V48.3311H399.185ZM428.712 30.8936V33.3076H423.438V34.9951H427.915V37.292H423.438V39.1553C425.758 39.1201 427.458 39.0146 429.438 38.6982L429.743 41.0186C427.294 41.4404 425.255 41.5225 422.032 41.5107H420.579V30.8936H428.712ZM423.508 50.7217V43.1982H438.063V50.7217H423.508ZM426.485 48.3311H435.11V45.542H426.485V48.3311ZM428.829 37.1514V34.7607H430.985V29.9561H433.821V42.2139H430.985V37.1514H428.829ZM435.227 42.3545V29.6279H438.063V42.3545H435.227Z" fill="white"/>
</g>
<defs>
<filter id="filter0_d_2152_315" x="-30" y="-34" width="543" height="148.6" filterUnits="userSpaceOnUse" color-interpolation-filters="sRGB">
<feFlood flood-opacity="0" result="BackgroundImageFix"/>
<feColorMatrix in="SourceAlpha" type="matrix" values="0 0 0 0 0 0 0 0 0 0 0 0 0 0 0 0 0 0 127 0" result="hardAlpha"/>
<feOffset dy="4"/>
<feGaussianBlur stdDeviation="5"/>
<feComposite in2="hardAlpha" operator="out"/>
<feColorMatrix type="matrix" values="0 0 0 0 0 0 0 0 0 0 0 0 0 0 0 0 0 0 0.05 0"/>
<feBlend mode="normal" in2="BackgroundImageFix" result="effect1_dropShadow_2152_315"/>
<feBlend mode="normal" in="SourceGraphic" in2="effect1_dropShadow_2152_315" result="shape"/>
</filter>
</defs>
</svg>
